<?xml version="1.0" encoding="UTF-8" standalone="no"?>
<!-- Created with Inkscape (http://www.inkscape.org/) -->

<svg
   width="96"
   height="64"
   viewBox="0 0 25.400001 16.933333"
   version="1.1"
   id="svg5"
   xml:space="preserve"
   inkscape:version="1.3.2 (091e20e, 2023-11-25, custom)"
   sodipodi:docname="logo.svg"
   inkscape:export-filename="logo102.png"
   inkscape:export-xdpi="200"
   inkscape:export-ydpi="200"
   xmlns:inkscape="http://www.inkscape.org/namespaces/inkscape"
   xmlns:sodipodi="http://sodipodi.sourceforge.net/DTD/sodipodi-0.dtd"
   xmlns:xlink="http://www.w3.org/1999/xlink"
   xmlns="http://www.w3.org/2000/svg"
   xmlns:svg="http://www.w3.org/2000/svg"><sodipodi:namedview
     id="namedview7"
     pagecolor="#505050"
     bordercolor="#eeeeee"
     borderopacity="1"
     inkscape:showpageshadow="0"
     inkscape:pageopacity="0"
     inkscape:pagecheckerboard="0"
     inkscape:deskcolor="#505050"
     inkscape:document-units="mm"
     showgrid="false"
     inkscape:zoom="2.7739016"
     inkscape:cx="36.951563"
     inkscape:cy="45.603636"
     inkscape:window-width="1920"
     inkscape:window-height="1017"
     inkscape:window-x="-8"
     inkscape:window-y="-8"
     inkscape:window-maximized="1"
     inkscape:current-layer="layer1"
     showguides="false" /><defs
     id="defs2"><linearGradient
       inkscape:collect="always"
       id="linearGradient11216"><stop
         style="stop-color:#d45500;stop-opacity:0;"
         offset="0"
         id="stop11214" /><stop
         style="stop-color:#d45500;stop-opacity:1;"
         offset="0.56298202"
         id="stop11212" /></linearGradient><radialGradient
       inkscape:collect="always"
       xlink:href="#linearGradient11216"
       id="radialGradient11232"
       cx="116.1147"
       cy="83.009277"
       fx="116.1147"
       fy="83.009277"
       r="13.973234"
       gradientTransform="matrix(1,0,0,1.7210402,0,-59.853027)"
       gradientUnits="userSpaceOnUse" /></defs><g
     inkscape:groupmode="layer"
     id="layer2"
     inkscape:label="guides" /><g
     inkscape:label="Calque 1"
     inkscape:groupmode="layer"
     id="layer1"><g
       id="g1582"
       transform="matrix(0.23145288,0,0,0.23145288,-6.5069069,3.1322974)"
       style="stroke-width:4.32053" /><g
       aria-label="M"
       transform="matrix(0.02972827,0,0,0.0298932,-17.436031,2.8200184)"
       id="text251"
       style="font-weight:bold;font-size:593.509px;font-family:Arial;-inkscape-font-specification:'Arial Bold';fill:#000000;stroke-width:1.57662;stroke-linecap:square;stroke-linejoin:bevel;paint-order:fill markers stroke;stop-color:#000000" /><g
       id="g1"
       transform="translate(-1.0583333,47.241993)"
       style="display:inline;fill:#000000"><path
         id="path1"
         style="font-weight:bold;font-size:593.509px;font-family:Arial;-inkscape-font-specification:'Arial Bold';fill:#000000;fill-opacity:1;stroke-width:0.0639514;stroke-linecap:square;stroke-linejoin:bevel;paint-order:fill markers stroke;stop-color:#000000"
         d="M 13.307141,3.0398122 V 17.327313 h 2.843237 V 6.0803232 L 19.148025,11.7137 h 2.946797 L 26.843677,3.0398122 H 23.35614 l -2.719214,5.587449 -2.75022,-5.587449 z"
         sodipodi:nodetypes="ccccccccccc" /><path
         d="m 12.893665,-2.6964868 c -1.402805,0 -2.540003,1.066123 -2.540001,2.38125204 -1e-6,1.315129 1.137197,2.38125196 2.540001,2.38125096 1.402804,1e-6 2.540002,-1.06612196 2.540001,-2.38125096 10e-7,-1.31512904 -1.137196,-2.38125204 -2.540001,-2.38125204 z"
         style="font-weight:bold;font-size:593.509px;font-family:Arial;-inkscape-font-specification:'Arial Bold';fill:#000000;fill-opacity:1;stroke-width:0.0639514;stroke-linecap:square;stroke-linejoin:bevel;paint-order:fill markers stroke;stop-color:#000000"
         id="path1-7" /><path
         d="M 7.7365819,3.0398122 0,17.327312 H 2.9461783 L 9.4834539,6.0803222 V 17.327312 H 12.32669 V 3.0398122 Z"
         style="font-weight:bold;font-size:593.509px;font-family:Arial;-inkscape-font-specification:'Arial Bold';fill:#000000;fill-opacity:1;stroke-width:0.0639514;stroke-linecap:square;stroke-linejoin:bevel;paint-order:fill markers stroke;stop-color:#000000"
         id="path1-1" /></g><path
       id="path2"
       style="font-weight:bold;font-size:593.509px;font-family:Arial;-inkscape-font-specification:'Arial Bold';display:inline;fill:#dedede;fill-opacity:1;stroke-width:0.0639514;stroke-linecap:square;stroke-linejoin:bevel;paint-order:fill markers stroke;stop-color:#000000"
       d="M 0,1.2442951 V 15.531795 H 2.843237 V 4.2848061 l 2.9976465,5.633377 H 8.787681 l 4.748855,-8.673888 H 10.048999 L 7.3297847,6.8317431 4.5795651,1.2442951 Z m 14.459891,0 L 6.7233098,15.531795 H 9.669488 L 16.206763,4.2848061 V 15.531795 h 2.843236 V 1.2442951 Z m 8.400108,9.5249969 a 2.54,2.3812496 0 0 0 -2.540001,2.381253 2.54,2.3812496 0 0 0 2.540001,2.38125 A 2.54,2.3812496 0 0 0 25.4,13.150545 2.54,2.3812496 0 0 0 22.859999,10.769292 Z" /><g
       id="g3"
       transform="matrix(0.94021824,0,0,0.94021824,1.2580295,19.447113)"
       style="display:inline"><g
         id="g4"
         transform="matrix(0.97959185,0,0,0.97959185,-0.02429845,1.0387768)" /><path
         id="path16"
         style="font-weight:bold;font-size:593.509px;font-family:Arial;-inkscape-font-specification:'Arial Bold';display:inline;fill:#e4e4e4;fill-opacity:1;stroke:#e2e2e2;stroke-width:0.553971;stroke-linecap:square;stroke-linejoin:bevel;stroke-dasharray:none;stroke-opacity:1;paint-order:fill markers stroke;stop-color:#000000"
         d="M -0.02442282,23.283908 V 37.279474 H 0.5186034 2.7610598 3.3035364 v -9.997618 l 2.3936024,4.498653 H 6.240165 8.5843013 9.1267779 L 13.778776,23.283908 H 13.23575 10.362328 9.8198511 L 7.4256989,28.203022 5.0046154,23.283908 H 4.4615893 0.5186034 Z m 14.16484982,0 -7.5787334,13.995566 H 7.1047198 9.447757 9.990783 l 5.861165,-10.083909 v 10.083909 h 0.542477 2.242457 0.542476 V 23.283908 h -0.542476 -3.953978 z m 8.228935,9.330378 a 2.4881633,2.3326527 0 0 0 -2.488137,2.332594 2.4881633,2.3326527 0 0 0 2.488137,2.332594 2.4881633,2.3326527 0 0 0 0.341865,-0.02473 2.4881633,2.3326527 0 0 0 0.200612,0.02473 2.4881633,2.3326527 0 0 0 2.488137,-2.332594 2.4881633,2.3326527 0 0 0 -2.488137,-2.332594 2.4881633,2.3326527 0 0 0 -0.200612,0.02473 2.4881633,2.3326527 0 0 0 -0.341865,-0.02473 z" /><path
         id="path17"
         style="font-weight:bold;font-size:593.509px;font-family:Arial;-inkscape-font-specification:'Arial Bold';display:inline;fill:#333333;fill-opacity:1;stroke:#d3d3d3;stroke-width:0.553971;stroke-linecap:round;stroke-linejoin:round;stroke-dasharray:none;stroke-opacity:1;paint-order:fill markers stroke;stop-color:#000000"
         d="m -1.0610331,23.283674 v 13.995918 h 2.7852116 v -11.01746 l 2.9364701,5.51841 H 7.5473074 L 12.199246,23.283674 H 8.7828842 L 6.1191641,28.757091 3.4250714,23.283674 Z m 14.1647901,0 -7.5786908,13.995918 h 2.8860524 l 6.4038604,-11.01746 v 11.01746 H 17.60019 V 23.283674 Z m 8.228678,9.330609 a 2.4881633,2.3326527 0 0 0 -2.488165,2.332655 2.4881633,2.3326527 0 0 0 2.488165,2.332654 2.4881633,2.3326527 0 0 0 2.488164,-2.332654 2.4881633,2.3326527 0 0 0 -2.488164,-2.332655 z" /></g><path
       id="path4-5"
       style="color:#000000;-inkscape-font-specification:'Arial Bold';display:inline;fill:#c8c7c8;fill-opacity:1;stroke-width:0.92103;stroke-linecap:square;stroke-linejoin:bevel;-inkscape-stroke:none;paint-order:fill markers stroke"
       d="m 1.2350667,20.90561 -0.26096596,0.2589 V 34.323396 L 1.2350667,34.584361 H 1.7461466 3.854545 4.3635579 l 0.2609659,-0.260965 v -8.357629 l 1.7606161,3.310391 0.2289265,0.138494 h 0.5105632 2.2039998 0.4619873 l -2.5920898,4.786787 0.2284098,0.382922 H 7.9380166 10.1415 10.652579 l 0.224793,-0.129707 5.023983,-8.6434 v 8.512142 l 0.260965,0.260965 h 0.511081 2.107882 0.509529 L 19.55126,34.323396 V 21.16451 l -0.260448,-0.2589 h -0.509529 -3.718119 -0.510563 l -0.228928,0.136942 -0.01395,0.02687 -0.09715,-0.163814 H 13.703038 11.001394 10.490315 L 10.256738,21.051342 8.2382567,25.197858 6.196521,21.051342 5.9624266,20.905613 H 5.4534138 1.7461466 Z m 21.0545273,8.771557 c -1.423933,1.5e-5 -2.599803,1.092233 -2.599839,2.453598 3.6e-5,1.361362 1.175906,2.453583 2.599839,2.453596 h 0.0031 c 0.104927,-7.93e-4 0.209109,-0.0089 0.313159,-0.02171 0.05725,0.0085 0.114876,0.01682 0.1726,0.02171 h 0.02171 c 1.423933,-1.3e-5 2.599288,-1.092234 2.599323,-2.453596 -3.5e-5,-1.361365 -1.17539,-2.453583 -2.599323,-2.453598 l -0.02171,0.0016 c -0.05956,0.0051 -0.11871,0.01279 -0.177767,0.0217 -0.102296,-0.01232 -0.20486,-0.02247 -0.307992,-0.02326 z" /><path
       id="path3"
       style="font-weight:bold;font-size:593.509px;font-family:Arial;-inkscape-font-specification:'Arial Bold';display:inline;fill:#333333;fill-opacity:1;stroke:#333333;stroke-width:0.520854;stroke-linecap:round;stroke-linejoin:round;stroke-dasharray:none;stroke-opacity:1;paint-order:fill markers stroke;stop-color:#000000"
       d="M 0.26042684,21.165322 V 34.32454 H 2.8791336 V 23.965724 l 2.7609227,5.18851 H 8.3541455 L 12.727983,21.165322 H 9.5158573 L 7.0113791,26.31153 4.4783441,21.165322 Z m 13.31799416,0 -7.1256235,13.159218 h 2.713519 L 15.187343,23.965724 V 34.32454 h 2.618706 V 21.165322 Z m 7.736753,8.772809 a 2.3394165,2.1932026 0 0 0 -2.339418,2.193205 2.3394165,2.1932026 0 0 0 2.339418,2.193204 2.3394165,2.1932026 0 0 0 2.339417,-2.193204 2.3394165,2.1932026 0 0 0 -2.339417,-2.193205 z" /></g></svg>
