<?xml version="1.0" encoding="UTF-8" standalone="no"?>
<svg
   version="1.1"
   id="Layer_1"
   x="0px"
   y="0px"
   width="1280"
   viewBox="0 0 1280 130"
   enable-background="new 0 0 1792 1024"
   xml:space="preserve"
   sodipodi:docname="background-1.svg"
   height="130"
   inkscape:version="1.3.2 (091e20e, 2023-11-25, custom)"
   xmlns:inkscape="http://www.inkscape.org/namespaces/inkscape"
   xmlns:sodipodi="http://sodipodi.sourceforge.net/DTD/sodipodi-0.dtd"
   xmlns="http://www.w3.org/2000/svg"
   xmlns:svg="http://www.w3.org/2000/svg"><defs
   id="defs1062" /><sodipodi:namedview
   id="namedview1062"
   pagecolor="#ffffff"
   bordercolor="#000000"
   borderopacity="0.25"
   inkscape:showpageshadow="2"
   inkscape:pageopacity="0.0"
   inkscape:pagecheckerboard="0"
   inkscape:deskcolor="#d1d1d1"
   inkscape:zoom="0.63225446"
   inkscape:cx="570.97264"
   inkscape:cy="149.46514"
   inkscape:window-width="1920"
   inkscape:window-height="1017"
   inkscape:window-x="-8"
   inkscape:window-y="-8"
   inkscape:window-maximized="1"
   inkscape:current-layer="g1062" />





































































































































































































































































































































































































































































































































































































































































































































































































































































































































































































































































































<g
   id="g1062"
   transform="translate(-254.31191,-54.003516)"><path
     fill="#8ea2a4"
     opacity="1"
     stroke="none"
     d="m 416.92633,129.17432 c -0.74661,-0.27825 -1.40952,-0.80307 -1.39127,-0.82793 6.4437,-8.77825 15.92078,-11.52899 25.76059,-7.15761 4.33414,-7.07342 10.20761,-12.29667 18.96744,-13.51107 8.04889,-1.11583 15.0665,2.68004 20.04733,11.64219 6.95621,-3.94638 12.88572,-1.30656 18.13486,3.7988 8.1536,-9.40452 17.03147,-12.41781 34.04294,-2.83383 1.83685,-6.22441 6.11646,-10.2089 12.19757,-11.93582 6.37103,-1.80926 11.66583,1.04201 16.42188,4.82566 14.80859,-13.66499 26.00476,-13.825642 35.54254,-0.51758 10.38959,-3.26792 17.37487,1.00318 23.46576,9.6373 1.77081,2.51017 7.60901,2.62352 11.65265,2.93882 5.11285,0.39869 10.30322,-0.31145 15.44775,-0.14959 2.12225,0.0668 4.21234,1.15711 6.31702,1.7819 -0.0833,0.56453 -0.16663,1.12907 -0.24994,1.6936 -78.6518,0.2007 -157.30353,0.4014 -236.35712,0.61516 z"
     id="path8" /><path
     fill="#8ca0a3"
     opacity="1"
     stroke="none"
     d="m 1269,156.97813 c -22.4611,-3e-5 -44.4221,-3e-5 -66.3832,-3e-5 7.195,-4.7357 14.283,-9.492 23.0725,-9.95771 1.8794,-0.0996 3.8371,0.77362 5.7191,1.33201 3.6951,1.0963 7.3135,2.53031 11.0718,3.28675 1.1081,0.22303 3.1139,-1.03385 3.8042,-2.16456 9.6125,-15.74186 25.8506,-16.99302 37.1046,-2.39846 0.5569,-0.86358 1.1414,-1.5689 1.5089,-2.37339 1.9832,-4.34053 5.8561,-7.69093 9.9947,-7.17663 6.8205,0.84764 9.7768,-3.24028 14.1219,-6.86029 12.7851,-10.6519 32.5393,-5.61462 38.1801,5.39105 0.7472,1.45785 2.8981,2.17329 4.3468,3.29962 2.5173,1.95702 5.6821,3.53418 7.2828,6.0825 1.4351,2.28487 2.4074,2.54754 4.6464,1.95006 1.5552,-0.41498 3.9592,-0.94005 4.806,-0.15121 3.8005,3.54057 7.1237,0.70001 10.7915,0.0857 2.9373,-0.49199 7.0996,-0.67711 8.9989,0.97647 5.3692,4.67432 11.5963,4.14406 17.7241,4.53504 4.6475,0.29649 9.3493,-0.18468 13.9848,0.19499 2.3393,0.1916 4.5852,1.52583 6.8733,2.3434 -0.1493,0.53492 -0.2986,1.06984 -0.4479,1.60476 -52.2338,0 -104.4675,0 -157.2013,-3e-5 z"
     id="path9" /><path
     fill="#8ca0a3"
     opacity="1"
     stroke="none"
     d="m 1330,98.00386 c -36.3837,4.05e-4 -72.2673,4.05e-4 -108.151,4.05e-4 -0.091,-0.530098 -0.182,-1.060204 -0.273,-1.590302 3.539,-0.850364 7.0494,-2.248665 10.6231,-2.435463 7.1425,-0.373329 14.3212,0.0011 21.4814,-0.12709 1.7237,-0.03087 3.9285,-0.287697 5.0678,-1.347878 6.2858,-5.848503 13.0756,-7.587776 19.869,-3.863044 3.6217,-5.002945 6.3472,-10.455658 10.6233,-14.077332 2.8212,-2.389358 7.8752,-2.134025 11.9242,-3.086426 1.3317,-0.313255 2.8852,-0.363022 3.9319,-1.105224 13.6693,-9.693848 29.9814,-7.225891 40.8398,6.554702 8.5607,-5.978317 17.5023,-7.484672 26.725,-1.239898 7.7101,5.220596 11.1274,12.826141 12.7426,22.317138 -18.6827,0 -36.7934,0 -55.4041,4.12e-4 z"
     id="path10" /><path
     fill="#8ea2a4"
     opacity="1"
     stroke="none"
     d="m 565.93274,87.15358 c 4.92749,0.294166 9.89368,-0.975624 13.79858,5.217094 -58.36425,0.982308 -115.73953,0.539238 -173.32779,0.401596 3.66452,-7.388717 17.69623,-10.137031 30.31595,-6.019317 2.46085,-7.264664 5.85855,-13.941697 13.43259,-17.464005 7.65762,-3.561188 14.82126,-2.904541 21.58526,1.694824 22.68329,-17.4823 41.10825,-14.02906 52.51255,9.932968 0.97858,-0.212272 2.10242,-0.298706 3.10077,-0.698417 6.04138,-2.418572 10.86798,-0.145722 14.62268,4.346039 2.28808,2.737304 4.61725,3.688781 8.0498,3.370979 5.12512,-0.474503 10.2879,-0.541939 15.90961,-0.781761 z"
     id="path12" /><path
     fill="#8ea2a4"
     opacity="1"
     stroke="none"
     d="m 503.98404,183.06212 c -28.49133,2.6e-4 -56.48526,2.6e-4 -85.81445,2.6e-4 4.79803,-2.93117 8.0834,-5.13182 11.54382,-7.00991 6.2384,-3.38575 9.17184,-3.19245 18.42468,0.68721 10.03461,-10.40797 13.15515,-11.42288 21.84918,-7.10607 12.42865,-15.4328 33.44077,-8.69451 36.68027,7.03117 4.88831,-1.06793 8.59552,0.32954 10.54681,6.39708 -4.57678,0 -8.65484,0 -13.23031,2.6e-4 z"
     id="path22" /><path
     fill="#8ea3a6"
     opacity="1"
     stroke="none"
     d="m 961.24487,145.49895 c 1.03943,0.98092 1.75519,1.75013 3.08484,3.1792 -27.23224,0 -53.51764,0 -79.90887,0 2.5415,-5.64911 7.02594,-6.96457 16.10266,-4.92633 7.75726,-10.52655 11.34503,-11.68793 21.45312,-6.79409 6.10334,-5.24482 13.14478,-7.93925 21.02521,-4.73304 3.18878,1.29736 6.40131,3.81091 8.30341,6.64367 1.97009,2.93382 2.92883,6.1189 7.3667,5.43025 0.68212,-0.10586 1.49615,0.63784 2.57293,1.20034 z"
     id="path34" /><path
     fill="#d0dbdd"
     opacity="1"
     stroke="none"
     d="m 899.15137,73.585541 c 3.15167,2.698021 5.97052,5.228332 8.91705,7.873321 10.49805,-3.77314 17.19592,-0.337967 20.77496,11.010018 -23.86627,0 -47.56744,0 -72.70355,0 2.20087,-1.82 3.33844,-3.133324 4.77112,-3.881996 6.73413,-3.519043 13.71967,-5.801125 21.46509,-3.728478 2.91723,0.780647 4.33758,-0.551483 5.51446,-3.34539 1.96619,-4.668053 4.68109,-8.932099 11.26087,-7.927475 z"
     id="path39" /><path
     fill="#d0dbdd"
     opacity="1"
     stroke="none"
     d="m 367.00247,153.05859 c -5.77435,3e-5 -11.04925,3e-5 -16.57367,3e-5 2.18921,-4.52357 7.30875,-6.91015 10.8934,-5.0633 2.68219,1.38185 3.82279,0.82333 4.77897,-1.87403 2.92608,-8.25448 10.34036,-9.58951 17.42172,-9.71535 5.90137,-0.10488 11.06012,2.92189 14.11917,8.69498 0.70905,1.33814 2.69733,2.16121 4.26111,2.84703 2.61362,1.1462 5.3594,1.99095 8.04956,2.96257 -0.15708,0.71602 -0.31412,1.43202 -0.47116,2.14804 -13.9932,0 -27.98642,0 -42.4791,3e-5 z"
     id="path46" /><path
     fill="#d6e1e5"
     opacity="1"
     stroke="none"
     d="m 1116.0005,99.015152 c -7.2236,-0.388893 -14.0972,0.835831 -20.7942,-1.653946 6.24,-4.223991 10.5742,-12.367897 20.1027,-8.070465 1.275,0.575066 3.6635,-0.863564 5.3469,-1.735436 4.8265,-2.49961 8.7606,-1.337768 12.7036,2.088723 1.261,1.095802 3.8447,1.564636 5.5193,1.1352 7.3931,-1.895904 13.4256,0.399552 18.2975,8.236038 -13.9575,0 -27.3168,0 -41.1758,-1.14e-4 z"
     id="path47" /></g>
</svg>
