<?xml version="1.0" encoding="UTF-8" standalone="no"?>
<!-- Created with Inkscape (http://www.inkscape.org/) -->

<svg
   width="500"
   height="300"
   viewBox="0 0 132.29166 79.375"
   version="1.1"
   id="svg1"
   xml:space="preserve"
   inkscape:version="1.3.2 (091e20e, 2023-11-25, custom)"
   sodipodi:docname="enveloppe.svg"
   xmlns:inkscape="http://www.inkscape.org/namespaces/inkscape"
   xmlns:sodipodi="http://sodipodi.sourceforge.net/DTD/sodipodi-0.dtd"
   xmlns="http://www.w3.org/2000/svg"
   xmlns:svg="http://www.w3.org/2000/svg"><sodipodi:namedview
     id="namedview1"
     pagecolor="#ffffff"
     bordercolor="#000000"
     borderopacity="0.25"
     inkscape:showpageshadow="2"
     inkscape:pageopacity="0.0"
     inkscape:pagecheckerboard="0"
     inkscape:deskcolor="#d1d1d1"
     inkscape:document-units="mm"
     inkscape:zoom="0.89700129"
     inkscape:cx="148.82922"
     inkscape:cy="254.73765"
     inkscape:window-width="1920"
     inkscape:window-height="1017"
     inkscape:window-x="-8"
     inkscape:window-y="-8"
     inkscape:window-maximized="1"
     inkscape:current-layer="g1" /><defs
     id="defs1" /><g
     inkscape:label="Calque 1"
     inkscape:groupmode="layer"
     id="layer1"><g
       id="g1"><rect
         style="fill:#777777;stroke:#989898;stroke-width:3;stroke-linecap:round;stroke-linejoin:round;stroke-dasharray:none;stroke-opacity:1;paint-order:stroke fill markers;fill-opacity:0.30000001"
         id="rect2"
         width="127.75648"
         height="74.839821"
         x="2.2675891"
         y="2.2675891"
         rx="9.9890566"
         ry="9.6824951" /><g
         id="g3"
         transform="matrix(0.91998192,0,0,0.89174792,-25.043308,-89.076289)"
         style="stroke:#989898;stroke-width:1.2;stroke-dasharray:none;stroke-opacity:1;fill:#e6e6e6;fill-opacity:1"><path
           id="path2"
           style="color:#000000;fill:#989898;stroke:none;stroke-linecap:round;stroke-linejoin:round;-inkscape-stroke:none"
           d="M 80.945846 146.92317 C 72.968771 150.67068 64.862387 156.10269 57.712901 161.51778 C 44.899354 171.22287 35.197262 180.92394 35.197262 180.92394 A 0.60000002 0.60000002 0 0 0 35.197262 181.77348 A 0.60000002 0.60000002 0 0 0 36.044884 181.77348 C 36.044884 181.77348 45.698404 172.12149 58.437509 162.47279 C 65.836084 156.86904 74.285738 151.30103 82.438875 147.60582 C 81.941541 147.3828 81.444778 147.1598 80.945846 146.92317 z M 117.29588 146.92317 C 116.79695 147.1598 116.30017 147.3828 115.80285 147.60582 C 123.95603 151.30102 132.40616 156.86901 139.80477 162.47279 C 152.54388 172.12149 162.1974 181.77348 162.1974 181.77348 A 0.60000002 0.60000002 0 0 0 163.04502 181.77348 A 0.60000002 0.60000002 0 0 0 163.04502 180.92394 C 163.04502 180.92394 153.34293 171.22287 140.52938 161.51778 C 133.37976 156.10259 125.2731 150.67069 117.29588 146.92317 z " /><path
           style="fill:none;stroke:#989898;stroke-width:1.2;stroke-linecap:round;stroke-linejoin:round;stroke-dasharray:none;stroke-opacity:1;fill-opacity:1"
           d="m 162.62058,113.18656 c 0,0 -38.71081,38.70767 -63.500002,38.70767 -24.789186,0 -63.5,-38.70767 -63.5,-38.70767"
           id="path1"
           sodipodi:nodetypes="csc" /></g></g></g></svg>
