<?xml version="1.0" encoding="UTF-8" standalone="no"?>
<!-- Created with Inkscape (http://www.inkscape.org/) -->

<svg
   width="1200"
   height="175"
   viewBox="0 0 317.49999 46.302083"
   version="1.1"
   id="svg5"
   sodipodi:docname="portfolio.svg"
   xml:space="preserve"
   inkscape:version="1.3.2 (091e20e, 2023-11-25, custom)"
   xmlns:inkscape="http://www.inkscape.org/namespaces/inkscape"
   xmlns:sodipodi="http://sodipodi.sourceforge.net/DTD/sodipodi-0.dtd"
   xmlns="http://www.w3.org/2000/svg"
   xmlns:svg="http://www.w3.org/2000/svg"><sodipodi:namedview
     id="namedview7"
     pagecolor="#505050"
     bordercolor="#eeeeee"
     borderopacity="1"
     inkscape:showpageshadow="0"
     inkscape:pageopacity="0"
     inkscape:pagecheckerboard="0"
     inkscape:deskcolor="#505050"
     inkscape:document-units="mm"
     showgrid="false"
     inkscape:zoom="1.4734708"
     inkscape:cx="401.77247"
     inkscape:cy="202.58291"
     inkscape:window-width="1920"
     inkscape:window-height="1017"
     inkscape:window-x="-8"
     inkscape:window-y="-8"
     inkscape:window-maximized="1"
     inkscape:current-layer="layer1" /><defs
     id="defs2"><rect
       x="-675.95502"
       y="255.17981"
       width="1620.6632"
       height="722.10455"
       id="rect240" /></defs><g
     inkscape:label="Calque 1"
     inkscape:groupmode="layer"
     id="layer1"><g
       id="g77"
       transform="matrix(0.94579101,0,0,0.94579101,8.7440334,-79.351318)"><g
         id="g25"><g
           aria-label="PORTFOLIO"
           transform="matrix(1.1998493,0,0,1.1262669,-26.969117,84.666671)"
           id="text443-9"
           style="font-weight:bold;font-size:57.0987px;font-family:Arial;-inkscape-font-specification:'Arial Bold';fill:#000000;fill-opacity:1;stroke-width:0.600002;stroke-linecap:square;stop-color:#000000"><path
             d="M 127.79077,-9.3962398e-7 V 21.422189 h -12.35905 l 17.26326,19.68889 16.97011,-19.68889 H 137.8819 V -9.3962398e-7 Z"
             style="fill:#000000;fill-opacity:1;stroke-width:0.999997"
             id="path747-1" /></g><path
           style="fill:#ffffff;fill-opacity:1;stroke:#000000;stroke-width:0.529167;stroke-dasharray:none;stroke-opacity:1"
           d="m 122.01953,86.150102 4.44399,-1.460172 12.01467,-0.158714 -4.20592,16.157114 -9.26892,-7.1104"
           id="path7"
           sodipodi:nodetypes="ccccc" /><path
           style="fill:#808080;stroke:#000000;stroke-width:0.529167;stroke-dasharray:none;stroke-opacity:1"
           d="m 134.04504,86.370617 4.48912,-1.705864 V 108.8162 l -9.06802,3.59127 1.88543,-21.996667"
           id="path3"
           sodipodi:nodetypes="ccccc" /><path
           style="fill:#666666;stroke:#000000;stroke-width:0.529167;stroke-dasharray:none;stroke-opacity:1"
           d="m 133.78522,110.62138 c 0.35913,-0.26935 5.02781,-2.065 5.02781,-2.065 h 14.09583 l -7.90085,3.23217 -12.47974,1.25695"
           id="path4"
           sodipodi:nodetypes="ccccc" /><path
           style="fill:#333333;stroke:#000000;stroke-width:0.529167;stroke-dasharray:none;stroke-opacity:1"
           d="m 128.11415,132.43118 4.57097,-1.52366 20.18846,-22.34696 -6.34857,2.28548 -17.01417,9.64983"
           id="path5" /><path
           style="fill:#ffffff;fill-opacity:1;stroke:#000000;stroke-width:0.529167;stroke-dasharray:none;stroke-opacity:1"
           d="m 106.90993,110.21118 4.8884,-1.39668 16.06188,-0.12697 -5.71371,5.14234"
           id="path6" /><g
           aria-label="PORTFOLIO"
           transform="matrix(1.1998493,0,0,1.1262669,-31.20245,86.254169)"
           id="g2"
           style="font-weight:bold;font-size:57.0987px;font-family:Arial;-inkscape-font-specification:'Arial Bold';fill:#ffffff;fill-opacity:1;stroke:#000000;stroke-width:0.455207;stroke-linecap:square;stroke-dasharray:none;stroke-opacity:1;stop-color:#000000"><path
             d="M 127.79077,-9.3962398e-7 V 21.422189 h -12.35905 l 17.26326,19.68889 16.97011,-19.68889 H 137.8819 V -9.3962398e-7 Z"
             style="fill:#ffffff;fill-opacity:1;stroke:#000000;stroke-width:0.455207;stroke-dasharray:none;stroke-opacity:1"
             id="path2" /></g></g><g
         id="g76"><path
           style="opacity:0.2;fill:none;fill-opacity:1;stroke:#000000;stroke-width:0.529167;stroke-dasharray:none;stroke-opacity:1"
           d="m 130.63331,130.1844 c 0.83797,0 1.67594,0 2.51391,0"
           id="path25" /><path
           style="opacity:0.2;fill:none;fill-opacity:1;stroke:#000000;stroke-width:0.529167;stroke-dasharray:none;stroke-opacity:1"
           d="m 131.98005,129.46614 c 0.83982,-0.20995 0.38329,-0.0978 2.24456,-0.4938 0.0146,-0.003 0.0449,0.015 0.0449,0 0,-0.12064 -0.23849,-0.0449 -0.35913,-0.0449"
           id="path26" /><path
           style="opacity:0.2;fill:none;fill-opacity:1;stroke:#000000;stroke-width:0.529167;stroke-dasharray:none;stroke-opacity:1"
           d="m 132.60852,128.52343 c 1.27836,-0.25567 0.4513,-0.0792 2.46902,-0.58359 0.20009,-0.05 0.13594,-0.001 0.22445,-0.0898"
           id="path27" /><path
           style="opacity:0.2;fill:none;fill-opacity:1;stroke:#000000;stroke-width:0.529167;stroke-dasharray:none;stroke-opacity:1"
           d="m 133.55124,126.95224 c 0.84407,-0.20476 1.82176,-0.0922 2.5588,-0.58359"
           id="path28" /><path
           style="opacity:0.2;fill:none;fill-opacity:1;stroke:#000000;stroke-width:0.529167;stroke-dasharray:none;stroke-opacity:1"
           d="m 135.12243,125.65039 c 1.88297,-0.22152 1.01403,-0.17956 2.60369,-0.17956 0.0449,0 0.10293,0.0317 0.13467,0 0.0237,-0.0237 -0.0299,-0.0599 -0.0449,-0.0898"
           id="path29" /><path
           style="opacity:0.2;fill:none;fill-opacity:1;stroke:#000000;stroke-width:0.529167;stroke-dasharray:none;stroke-opacity:1"
           d="m 135.61623,124.88724 c 1.10694,-0.24128 2.19326,-0.59285 3.32195,-0.71826"
           id="path30" /><path
           style="opacity:0.2;fill:none;fill-opacity:1;stroke:#000000;stroke-width:0.529167;stroke-dasharray:none;stroke-opacity:1"
           d="m 137.14253,123.85475 c 0.62532,-0.39224 1.5866,-0.0154 2.10989,-0.5387"
           id="path31" /><path
           style="opacity:0.2;fill:none;fill-opacity:1;stroke:#000000;stroke-width:0.529167;stroke-dasharray:none;stroke-opacity:1"
           d="m 137.86079,122.77736 c 2.01435,-0.76737 1.22891,-0.57237 2.28945,-0.80804"
           id="path32" /><path
           style="opacity:0.2;fill:none;fill-opacity:1;stroke:#000000;stroke-width:0.529167;stroke-dasharray:none;stroke-opacity:1"
           d="m 138.71372,121.74486 c 1.18507,1.15834 1.66848,-0.76315 2.5588,-0.76315"
           id="path33" /><path
           style="opacity:0.2;fill:none;fill-opacity:1;stroke:#000000;stroke-width:0.529167;stroke-dasharray:none;stroke-opacity:1"
           d="m 139.74622,120.30834 c 0.73268,-1.00097 1.94863,-0.33721 2.87304,-0.67337 0.27599,-0.10036 -0.0146,-0.0898 0.13467,-0.0898"
           id="path34" /><path
           style="opacity:0.2;fill:none;fill-opacity:1;stroke:#000000;stroke-width:0.529167;stroke-dasharray:none;stroke-opacity:1"
           d="m 140.8685,119.14117 c 0.79903,-0.18748 1.55604,-0.53111 2.28945,-0.89782"
           id="path35" /><path
           style="opacity:0.2;fill:none;fill-opacity:1;stroke:#000000;stroke-width:0.529167;stroke-dasharray:none;stroke-opacity:1"
           d="m 142.61926,117.21085 c 1.13965,0.15195 2.18279,-0.2477 3.27705,-0.40402"
           id="path36" /><path
           style="opacity:0.2;fill:none;fill-opacity:1;stroke:#000000;stroke-width:0.529167;stroke-dasharray:none;stroke-opacity:1"
           d="m 144.4149,115.59477 c 0.49698,-0.34058 1.06445,-0.5387 1.66098,-0.5387"
           id="path37" /><path
           style="opacity:0.2;fill:none;fill-opacity:1;stroke:#000000;stroke-width:0.529167;stroke-dasharray:none;stroke-opacity:1"
           d="m 145.13316,114.29293 c 2.0632,-0.40118 1.00975,-0.17878 2.60369,-0.5387 0.13847,-0.0313 0.54598,-0.13467 0.40402,-0.13467"
           id="path38" /><path
           style="opacity:0.2;fill:none;fill-opacity:1;stroke:#000000;stroke-width:0.529167;stroke-dasharray:none;stroke-opacity:1"
           d="m 146.92881,113.03597 c 2.36786,-1.18393 -0.068,-0.0418 1.61608,-0.67336 0.0287,-0.0108 0.20867,-0.14923 0.26935,-0.17957"
           id="path39" /><path
           style="opacity:0.2;fill:none;fill-opacity:1;stroke:#000000;stroke-width:0.529167;stroke-dasharray:none;stroke-opacity:1"
           d="m 147.51239,111.59945 c 0.62687,-0.14787 1.19977,-0.44418 1.79565,-0.67336 0.10637,-0.0409 0.28117,-0.0567 0.35913,-0.13468"
           id="path40" /><path
           style="opacity:0.2;fill:none;fill-opacity:1;stroke:#000000;stroke-width:0.264583;stroke-dasharray:none;stroke-opacity:1"
           d="m 147.06348,109.75892 c 0.74464,0 0.13471,0.0191 1.5263,-0.22446 0.28353,-0.0496 0.57783,-0.05 0.85293,-0.13467 0.2242,-0.069 0.47338,-0.22446 0.71826,-0.22446"
           id="path41" /><path
           style="opacity:0.2;fill:none;fill-opacity:1;stroke:#000000;stroke-width:0.264583;stroke-dasharray:none;stroke-opacity:1"
           d="m 145.98609,109.48957 c 0.69665,0.15593 1.30535,-0.35913 1.97522,-0.35913"
           id="path42" /><path
           style="opacity:0.2;fill:none;fill-opacity:1;stroke:#000000;stroke-width:0.264583;stroke-dasharray:none;stroke-opacity:1"
           d="m 144.28023,109.89359 c 0.4952,-0.85007 1.72359,-0.78088 2.37923,-1.43652"
           id="path43" /><path
           style="opacity:0.2;fill:none;fill-opacity:1;stroke:#000000;stroke-width:0.264583;stroke-dasharray:none;stroke-opacity:1"
           d="m 142.03567,109.48957 c 0.69752,-0.34924 1.4446,-0.57438 2.19967,-0.76315"
           id="path44" /><path
           style="opacity:0.2;fill:none;fill-opacity:1;stroke:#000000;stroke-width:0.264583;stroke-dasharray:none;stroke-opacity:1"
           d="m 139.88089,109.71403 c 0.0599,-0.0449 0.10887,-0.1102 0.17957,-0.13468 0.71111,-0.24615 1.4337,-0.45812 2.15478,-0.67336 0.14248,-0.0425 0.89464,-0.1315 1.12227,-0.35913"
           id="path45" /><path
           style="opacity:0.2;fill:none;fill-opacity:1;stroke:#000000;stroke-width:0.264583;stroke-dasharray:none;stroke-opacity:1"
           d="m 139.02796,109.89359 c 1.04992,-0.69776 1.95136,-0.66542 3.0526,-1.0325"
           id="path46" /><path
           style="opacity:0.2;fill:none;fill-opacity:1;stroke:#000000;stroke-width:0.264583;stroke-dasharray:none;stroke-opacity:1"
           d="m 137.54655,109.71403 c 0.86109,-0.36904 1.59744,-0.69355 2.46902,-1.0325 0.37064,-0.14414 0.27508,-0.13467 0.4938,-0.13467"
           id="path47" /><path
           style="opacity:0.2;fill:none;fill-opacity:1;stroke:#000000;stroke-width:0.264583;stroke-dasharray:none;stroke-opacity:1"
           d="m 138.17503,85.203447 c -1.28413,0.551579 -2.4323,1.350822 -3.68108,1.97521"
           id="path62" /><path
           style="opacity:0.2;fill:none;fill-opacity:1;stroke:#000000;stroke-width:0.264583;stroke-dasharray:none;stroke-opacity:1"
           d="m 138.3097,86.415508 c -1.26534,0.65798 -1.71676,0.887754 -3.14238,1.660973 -0.6314,0.342455 -0.47194,0.233899 -0.85293,0.538694"
           id="path63" /><path
           style="opacity:0.2;fill:none;fill-opacity:1;stroke:#000000;stroke-width:0.264583;stroke-dasharray:none;stroke-opacity:1"
           d="m 137.8159,88.345829 c -1.21497,0.152136 -1.86508,0.907553 -2.78325,1.481407"
           id="path64" /><path
           style="opacity:0.2;fill:none;fill-opacity:1;stroke:#000000;stroke-width:0.264583;stroke-dasharray:none;stroke-opacity:1"
           d="m 138.13014,89.019196 c -0.28873,0.18995 -2.13907,1.376045 -2.64858,1.795645 -0.21236,0.174887 -0.37959,0.399016 -0.58359,0.583587 -0.3711,0.335758 -0.35912,0.113966 -0.35912,0.314237"
           id="path65" /><path
           style="opacity:0.2;fill:none;fill-opacity:1;stroke:#000000;stroke-width:0.264583;stroke-dasharray:none;stroke-opacity:1"
           d="m 137.77101,90.859733 c -1.52205,1.053724 -0.77345,0.54556 -2.24456,1.526299 -0.18536,0.123571 -0.80804,0.476295 -0.80804,0.628478"
           id="path66" /><path
           style="opacity:0.2;fill:none;fill-opacity:1;stroke:#000000;stroke-width:0.264583;stroke-dasharray:none;stroke-opacity:1"
           d="m 138.26481,92.25136 c -0.34416,0.269348 -0.67373,0.558466 -1.0325,0.808042 -0.33075,0.230087 -0.69485,0.408617 -1.03249,0.628476 -0.63078,0.410739 -1.21484,0.884708 -1.84054,1.301845"
           id="path67" /><path
           style="opacity:0.2;fill:none;fill-opacity:1;stroke:#000000;stroke-width:0.264583;stroke-dasharray:none;stroke-opacity:1"
           d="m 138.04036,94.451029 c -4.63268,3.088449 2.11718,-1.383496 -2.82815,1.795645 -0.40761,0.26204 -0.38178,0.317881 -0.71826,0.628478 -0.35914,0.331512 -0.1822,0.09373 -0.35913,0.359129"
           id="path68" /><path
           style="opacity:0.2;fill:none;fill-opacity:1;stroke:#000000;stroke-width:0.264583;stroke-dasharray:none;stroke-opacity:1"
           d="m 137.8159,96.516022 c -1.24605,0.554516 -2.15652,1.483148 -3.09749,2.424123"
           id="path69" /><path
           style="opacity:0.2;fill:none;fill-opacity:1;stroke:#000000;stroke-width:0.264583;stroke-dasharray:none;stroke-opacity:1"
           d="m 138.08525,98.401451 c -2.88894,1.784339 -0.23622,0.208822 -2.78326,1.571191 -0.0152,0.0081 -0.97039,0.628478 -1.07738,0.628478"
           id="path70" /><path
           style="opacity:0.2;fill:none;fill-opacity:1;stroke:#000000;stroke-width:0.264583;stroke-dasharray:none;stroke-opacity:1"
           d="m 137.90568,100.10731 c -0.89922,0.82732 -2.02655,1.27439 -3.00771,1.97522"
           id="path71" /><path
           style="opacity:0.2;fill:none;fill-opacity:1;stroke:#000000;stroke-width:0.264583;stroke-dasharray:none;stroke-opacity:1"
           d="m 137.8159,101.7234 c -0.5782,0.34692 -1.81828,1.06536 -2.46901,1.5263 -0.34499,0.24437 -0.0623,0.0985 -0.31424,0.22445"
           id="path72" /><path
           style="opacity:0.2;fill:none;fill-opacity:1;stroke:#000000;stroke-width:0.264583;stroke-dasharray:none;stroke-opacity:1"
           d="m 138.21992,103.33948 c -2.03817,1.11173 0.007,-0.031 -1.84054,1.07739 -0.23555,0.14133 -0.48531,0.25843 -0.71826,0.40402 -0.17259,0.10787 -0.32445,0.24623 -0.4938,0.35913"
           id="path73" /><path
           style="opacity:0.2;fill:none;fill-opacity:1;stroke:#000000;stroke-width:0.264583;stroke-dasharray:none;stroke-opacity:1"
           d="m 137.8159,105.00045 c -1.49023,0.67301 -1.11731,0.40689 -2.24456,1.21206 -0.5922,0.42301 -0.19832,0.2114 -0.58358,0.40403"
           id="path74" /><path
           style="opacity:0.2;fill:none;fill-opacity:1;stroke:#000000;stroke-width:0.264583;stroke-dasharray:none;stroke-opacity:1"
           d="m 137.72612,106.61654 c -0.75735,0.50375 -1.632,0.77766 -2.42413,1.21206 -0.1312,0.072 -0.23462,0.18634 -0.35912,0.26934 -0.15559,0.10373 -0.23043,0.10173 -0.31424,0.26935"
           id="path75" /><path
           style="opacity:0.2;fill:none;fill-opacity:1;stroke:#000000;stroke-width:0.264583;stroke-dasharray:none;stroke-opacity:1"
           d="m 138.13014,108.09794 c -1.09673,0.62574 -2.53344,0.41705 -3.59129,1.12228"
           id="path76" /></g></g><text
       xml:space="preserve"
       transform="scale(0.26458333)"
       id="text238"
       style="font-weight:bold;font-size:192px;line-height:normal;font-family:Arial;-inkscape-font-specification:'Arial Bold';text-decoration-color:#000000;white-space:pre;shape-inside:url(#rect240);display:inline;fill:#000000;stroke-width:0.755906;stroke-linecap:square;stroke-linejoin:bevel;paint-order:fill markers stroke;stop-color:#000000" /><g
       aria-label="PORTFOLIO"
       transform="scale(1.0174738,0.98282631)"
       id="text246"
       style="font-weight:bold;font-size:54.5517px;font-family:Arial;-inkscape-font-specification:'Arial Bold';stroke-width:0.2;stroke-linecap:square;stroke-linejoin:bevel;paint-order:fill markers stroke;stop-color:#000000" /><g
       aria-label="PORTFOLIO"
       transform="matrix(1.1998493,0,0,1.1262669,-26.969117,52.916669)"
       id="text443"
       style="font-weight:bold;font-size:57.0987px;font-family:Arial;-inkscape-font-specification:'Arial Bold';fill:#000000;fill-opacity:1;stroke-width:0.600002;stroke-linecap:square;stop-color:#000000"><path
         d="M 127.79077,-9.3962398e-7 V 21.422189 h -12.35905 l 17.26326,19.68889 16.97011,-19.68889 H 137.8819 V -9.3962398e-7 Z"
         style="fill:#000000;fill-opacity:1;stroke-width:0.999997"
         id="path747" /></g><path
       d="m 15.702738,0.69302639 c 6.051407,0 10.512664,1.25991871 13.38377,3.77975601 2.915278,2.4778401 4.372917,5.9426166 4.372917,10.3943286 0,2.01587 -0.309196,3.947746 -0.927588,5.795626 -0.618394,1.805884 -1.656408,3.42278 -3.114046,4.850688 -1.413469,1.427906 -3.29073,2.561835 -5.631787,3.40178 -2.296885,0.839946 -5.145904,1.259919 -8.547061,1.259919 h -3.975379 v 15.497 H -6.3632992e-6 V 0.69302639 Z M 15.3052,9.4494612 H 11.263564 V 21.418689 h 2.981534 c 1.54598,0 2.893192,-0.209986 4.041634,-0.62996 1.192613,-0.419972 2.120202,-1.091929 2.782765,-2.01587 0.662563,-0.923941 0.993844,-2.120861 0.993844,-3.590769 0,-1.84788 -0.552136,-3.254789 -1.656407,-4.220726 C 19.302661,9.9534286 17.602085,9.4494612 15.3052,9.4494612 Z"
       style="font-weight:800;font-size:54.3583px;font-family:'Noto Sans';-inkscape-font-specification:'Noto Sans Ultra-Bold';stroke-width:5.3838"
       id="path1" /><path
       d="m 79.14245,23.119579 c 0,3.485775 -0.441709,6.656571 -1.325126,9.512385 -0.883417,2.813819 -2.252714,5.249663 -4.107891,7.307529 -1.855176,2.057868 -4.218317,3.632767 -7.089424,4.724695 -2.871106,1.09193 -6.272264,1.637894 -10.203472,1.637894 -3.887035,0 -7.266106,-0.545964 -10.137211,-1.637894 -2.871108,-1.133926 -5.23425,-2.708824 -7.089425,-4.724695 -1.855177,-2.057866 -3.246559,-4.514708 -4.174146,-7.370524 -0.883418,-2.855816 -1.325127,-6.026611 -1.325127,-9.512385 0,-4.6617 0.795076,-8.714439 2.385228,-12.158216 1.634322,-3.4437779 4.129976,-6.1106059 7.48696,-8.0004839 C 46.963973,0.96600878 51.270632,7.110598e-5 56.482795,7.110598e-5 c 5.256333,0 9.540907,0.96593767402 12.853722,2.89781299402 3.356987,1.889878 5.830554,4.5777046 7.420705,8.0634799 1.590152,3.443778 2.385228,7.496516 2.385228,12.158215 z m -33.591944,0 c 0,2.939812 0.375451,5.480646 1.126357,7.622508 0.750905,2.099863 1.921432,3.71676 3.511583,4.850687 1.634321,1.133926 3.710353,1.70089 6.228091,1.70089 2.606081,0 4.704199,-0.566964 6.29435,-1.70089 1.590152,-1.133927 2.738594,-2.750824 3.445327,-4.850687 0.750905,-2.141862 1.126356,-4.682696 1.126356,-7.622508 0,-4.451713 -0.839244,-7.937489 -2.517738,-10.457325 -1.634322,-2.519838 -4.395001,-3.7797561 -8.282037,-3.7797561 -2.561912,0 -4.660028,0.587962 -6.294349,1.7638861 -1.590151,1.133926 -2.760678,2.771822 -3.511583,4.913683 -0.750906,2.099864 -1.126357,4.619702 -1.126357,7.559512 z"
       style="font-weight:800;font-size:54.3583px;font-family:'Noto Sans';-inkscape-font-specification:'Noto Sans Ultra-Bold';stroke-width:5.3838"
       id="path1-6" /><path
       d="m 94.96028,0.69302639 c 4.284575,0 7.81825,0.50396741 10.60101,1.51190241 2.82694,0.9659377 4.94713,2.4568414 6.36061,4.4727113 1.41346,1.9738725 2.12019,4.4517129 2.12019,7.4335209 0,1.931874 -0.37545,3.653764 -1.12635,5.165667 -0.75091,1.511901 -1.76683,2.834817 -3.04779,3.968743 -1.23679,1.133926 -2.67233,2.078866 -4.30666,2.834817 l 13.84755,19.591736 H 106.7539 L 96.086638,28.789213 H 91.647465 V 45.672124 H 80.383894 V 0.69302639 Z M 94.496485,9.1344815 h -2.84902 V 20.410754 h 2.84902 c 2.694423,0 4.704199,-0.46197 6.029325,-1.38591 1.36929,-0.965937 2.05394,-2.477841 2.05394,-4.535708 0,-1.217921 -0.2871,-2.204858 -0.86132,-2.960809 C 101.1442,10.730379 100.26078,10.142416 99.068171,9.7644408 97.875558,9.3444679 96.351662,9.1344815 94.496485,9.1344815 Z"
       style="font-weight:800;font-size:54.3583px;font-family:'Noto Sans';-inkscape-font-specification:'Noto Sans Ultra-Bold';stroke-width:5.3838"
       id="path1-2" /><path
       d="M 165.33995,45.672124 H 154.2089 V 0.69302639 h 27.49636 V 9.3864653 H 165.33995 V 19.591807 h 15.1727 v 8.693439 h -15.1727 z"
       style="font-weight:800;font-size:54.3583px;font-family:'Noto Sans';-inkscape-font-specification:'Noto Sans Ultra-Bold';stroke-width:5.3838"
       id="path1-3" /><path
       d="m 227.04048,23.119579 c 0,3.485775 -0.44172,6.656571 -1.32514,9.512385 -0.88342,2.813819 -2.2527,5.249663 -4.10788,7.307529 -1.85518,2.057868 -4.21831,3.632767 -7.08942,4.724695 -2.87112,1.09193 -6.27227,1.637894 -10.20347,1.637894 -3.88705,0 -7.26612,-0.545964 -10.13722,-1.637894 -2.87112,-1.133926 -5.23426,-2.708824 -7.08943,-4.724695 -1.85516,-2.057866 -3.24656,-4.514708 -4.17414,-7.370524 -0.88342,-2.855816 -1.32514,-6.026611 -1.32514,-9.512385 0,-4.6617 0.79508,-8.714439 2.38524,-12.158216 1.63433,-3.4437779 4.12997,-6.1106059 7.48695,-8.0004839 3.40116,-1.93187532 7.70783,-2.89781299402 12.91999,-2.89781299402 5.25633,0 9.54091,0.96593767402 12.85372,2.89781299402 3.35698,1.889878 5.83056,4.5777046 7.42071,8.0634799 1.59015,3.443778 2.38523,7.496516 2.38523,12.158215 z m -33.59196,0 c 0,2.939812 0.37546,5.480646 1.12636,7.622508 0.7509,2.099863 1.92144,3.71676 3.51159,4.850687 1.63433,1.133926 3.71037,1.70089 6.2281,1.70089 2.60607,0 4.70419,-0.566964 6.29434,-1.70089 1.59015,-1.133927 2.7386,-2.750824 3.44533,-4.850687 0.75091,-2.141862 1.12636,-4.682696 1.12636,-7.622508 0,-4.451713 -0.83926,-7.937489 -2.51774,-10.457325 -1.63432,-2.519838 -4.395,-3.7797561 -8.28204,-3.7797561 -2.56191,0 -4.66002,0.587962 -6.29435,1.7638861 -1.59015,1.133926 -2.76069,2.771822 -3.51159,4.913683 -0.7509,2.099864 -1.12636,4.619702 -1.12636,7.559512 z"
       style="font-weight:800;font-size:54.3583px;font-family:'Noto Sans';-inkscape-font-specification:'Noto Sans Ultra-Bold';stroke-width:5.3838"
       id="path1-9" /><path
       d="M 228.2819,45.672124 V 0.69302634 h 11.26358 V 36.915689 H 258.296 v 8.756435 z"
       style="font-weight:800;font-size:54.3583px;font-family:'Noto Sans';-inkscape-font-specification:'Noto Sans Ultra-Bold';stroke-width:5.3838"
       id="path1-36" /><path
       d="M 259.50448,45.672124 V 0.69302639 h 11.26357 V 45.672124 Z"
       style="font-weight:800;font-size:54.3583px;font-family:'Noto Sans';-inkscape-font-specification:'Noto Sans Ultra-Bold';stroke-width:5.3838"
       id="path1-68" /><path
       d="m 317.49999,23.119579 c 0,3.485775 -0.4417,6.656571 -1.32513,9.512385 -0.88341,2.813819 -2.25271,5.249663 -4.10789,7.307529 -1.85516,2.057868 -4.2183,3.632767 -7.08942,4.724695 -2.87109,1.09193 -6.27225,1.637894 -10.20346,1.637894 -3.88704,0 -7.26611,-0.545964 -10.13723,-1.637894 -2.87108,-1.133926 -5.23423,-2.708824 -7.08941,-4.724695 -1.85518,-2.057866 -3.24656,-4.514708 -4.17415,-7.370524 -0.88343,-2.855816 -1.32513,-6.026611 -1.32513,-9.512385 0,-4.6617 0.79508,-8.714439 2.38523,-12.158216 1.63432,-3.4437779 4.12999,-6.1106059 7.48696,-8.0004839 3.40117,-1.93187532 7.70782,-2.89781299402 12.91998,-2.89781299402 5.25632,0 9.5409,0.96593767402 12.85372,2.89781299402 3.357,1.889878 5.83056,4.5777046 7.42071,8.0634799 1.59015,3.443778 2.38522,7.496516 2.38522,12.158215 z m -33.59193,0 c 0,2.939812 0.37545,5.480646 1.12635,7.622508 0.7509,2.099863 1.92143,3.71676 3.51158,4.850687 1.63432,1.133926 3.71036,1.70089 6.2281,1.70089 2.60608,0 4.70419,-0.566964 6.29434,-1.70089 1.59015,-1.133927 2.7386,-2.750824 3.44532,-4.850687 0.75091,-2.141862 1.12637,-4.682696 1.12637,-7.622508 0,-4.451713 -0.83926,-7.937489 -2.51775,-10.457325 -1.63432,-2.519838 -4.39499,-3.7797561 -8.28203,-3.7797561 -2.56191,0 -4.66003,0.587962 -6.29435,1.7638861 -1.59015,1.133926 -2.76068,2.771822 -3.51158,4.913683 -0.7509,2.099864 -1.12635,4.619702 -1.12635,7.559512 z"
       style="font-weight:800;font-size:54.3583px;font-family:'Noto Sans';-inkscape-font-specification:'Noto Sans Ultra-Bold';stroke-width:5.3838"
       id="path1-7" /></g></svg>
