<?xml version="1.0" encoding="UTF-8" standalone="no"?>
<!-- Created with Inkscape (http://www.inkscape.org/) -->

<svg
   width="600"
   height="300"
   viewBox="0 0 158.75 79.375"
   version="1.1"
   id="svg5"
   sodipodi:docname="portfolio-s.svg"
   xml:space="preserve"
   inkscape:version="1.2.2 (732a01da63, 2022-12-09)"
   xmlns:inkscape="http://www.inkscape.org/namespaces/inkscape"
   xmlns:sodipodi="http://sodipodi.sourceforge.net/DTD/sodipodi-0.dtd"
   xmlns="http://www.w3.org/2000/svg"
   xmlns:svg="http://www.w3.org/2000/svg"><sodipodi:namedview
     id="namedview7"
     pagecolor="#505050"
     bordercolor="#eeeeee"
     borderopacity="1"
     inkscape:showpageshadow="0"
     inkscape:pageopacity="0"
     inkscape:pagecheckerboard="0"
     inkscape:deskcolor="#505050"
     inkscape:document-units="mm"
     showgrid="false"
     inkscape:zoom="0.73673542"
     inkscape:cx="-129.62591"
     inkscape:cy="160.16605"
     inkscape:window-width="1920"
     inkscape:window-height="1009"
     inkscape:window-x="-8"
     inkscape:window-y="-8"
     inkscape:window-maximized="1"
     inkscape:current-layer="text443" /><defs
     id="defs2"><rect
       x="-675.95502"
       y="255.17981"
       width="1620.6632"
       height="722.10455"
       id="rect240" /></defs><g
     inkscape:label="Calque 1"
     inkscape:groupmode="layer"
     id="layer1"><text
       xml:space="preserve"
       transform="scale(0.26458333)"
       id="text238"
       style="font-weight:bold;font-size:192px;line-height:normal;font-family:Arial;-inkscape-font-specification:'Arial Bold';text-decoration-color:#000000;white-space:pre;shape-inside:url(#rect240);display:inline;fill:#000000;stroke-width:0.755906;stroke-linecap:square;stroke-linejoin:bevel;paint-order:fill markers stroke;stop-color:#000000" /><g
       aria-label="PORTFOLIO"
       transform="scale(1.0174738,0.98282631)"
       id="text246"
       style="font-weight:bold;font-size:54.5517px;font-family:Arial;-inkscape-font-specification:'Arial Bold';stroke-width:0.2;stroke-linecap:square;stroke-linejoin:bevel;paint-order:fill markers stroke;stop-color:#000000" /><g
       aria-label="PORTFOLIO"
       transform="matrix(1.0358697,0,0,0.96537238,0,1.0583333)"
       id="text443"
       style="font-weight:bold;font-size:57.0987px;font-family:Arial;-inkscape-font-specification:'Arial Bold';fill:#eb5939;fill-opacity:1;stroke-width:0.600002;stroke-linecap:square;stop-color:#000000"><path
         d="M 3.9061432e-8,41.636071 V 1.0111094 Q 4.2096579,0.83749845 7.3669014,0.72175782 10.524145,0.60601718 12.687441,0.60601718 q 2.221764,-0.0578703 3.332646,-0.0578703 5.495942,0 9.120926,0.86805473 3.624983,0.8101844 5.671345,2.5462939 2.046361,1.7361095 2.923373,4.5138847 0.877012,2.7777758 0.877012,6.7129578 0,4.050922 -0.877012,6.944437 -0.818544,2.893516 -2.747971,4.745366 -1.87096,1.85185 -4.911268,2.777775 -3.040309,0.868055 -7.483836,0.868055 -1.286284,0 -2.163297,0 -0.818544,0 -1.461686,0 -0.643142,0 -1.286285,0 -0.643142,-0.05787 -1.520154,-0.115741 -0.877012,-0.05787 -2.2217638,-0.11574 V 41.636071 Z M 9.9394702,8.5342505 V 22.596737 q 0.9354798,0.05787 1.6370888,0.115741 0.70161,0 1.286284,0.05787 0.643143,0 1.227818,0 0.643142,0 1.403219,0 2.864906,0 4.61893,-0.405092 1.812492,-0.405093 2.747971,-1.331018 0.993947,-0.925925 1.344752,-2.430553 0.350805,-1.504628 0.350805,-3.64583 0,-1.79398 -0.350805,-3.009257 Q 23.854728,10.675452 22.977717,9.8652678 22.159172,9.0550834 20.639018,8.7078615 19.118863,8.3027693 16.780164,8.3027693 q -0.760077,0 -1.403218,0 -0.643143,0 -1.40322,0.057871 -0.70161,0 -1.695557,0.057871 -0.93548,0.057871 -2.3386988,0.1157392 z"
         style="font-family:Georama;-inkscape-font-specification:'Georama Bold';stroke-width:0.600001"
         id="path673" /><path
         d="m 56.479582,34.518023 q 1.578622,0 2.923373,-0.405092 1.40322,-0.405093 2.455634,-1.273147 1.052415,-0.925926 1.754024,-2.372683 0.760077,-1.504628 1.110883,-3.761571 0.409272,-2.314813 0.409272,-5.381939 0,-3.067127 -0.409272,-5.32407 Q 64.37269,13.742579 63.612613,12.295822 62.911004,10.791193 61.800122,9.9231381 60.747707,8.997213 59.402955,8.6499912 58.058204,8.2448989 56.479582,8.2448989 q -1.578622,0 -2.923374,0.4050923 -1.286284,0.3472218 -2.338698,1.2152766 -1.052415,0.8680552 -1.812492,2.3726832 -0.760077,1.504628 -1.16935,3.819441 -0.409272,2.256943 -0.409272,5.324069 0,3.124997 0.409272,5.381939 0.409273,2.199073 1.16935,3.703701 0.760077,1.504628 1.812492,2.430553 1.052414,0.868055 2.397165,1.273147 1.344752,0.347222 2.864907,0.347222 z m 0.05847,7.696752 q -3.566515,0 -6.489889,-0.694444 -2.923374,-0.694444 -5.262073,-2.199072 -2.280231,-1.504628 -3.858853,-3.935182 -1.520154,-2.430553 -2.397166,-5.902772 -0.818544,-3.472219 -0.818544,-8.101844 0,-4.629625 0.760077,-8.043974 0.818541,-3.4722192 2.338696,-5.9027726 1.578621,-2.4305532 3.858852,-3.9351815 2.280231,-1.5624985 5.203605,-2.2569422 2.981841,-0.69444383 6.606825,-0.69444383 3.683451,0 6.606824,0.69444383 2.981841,0.6944437 5.203605,2.1990719 2.280232,1.5046283 3.800386,3.9351815 1.578621,2.372683 2.338698,5.8449029 0.818545,3.414348 0.818545,7.986103 0,4.745366 -0.818545,8.275455 -0.760077,3.472219 -2.338698,5.902772 -1.578622,2.430554 -3.858853,3.935182 -2.280232,1.504628 -5.203606,2.199072 -2.923373,0.694444 -6.489889,0.694444 z"
         style="font-family:Georama;-inkscape-font-specification:'Georama Bold';stroke-width:0.600001"
         id="path675" /><path
         d="m 114.42079,42.214775 q -1.81249,0 -3.62498,-0.520833 -1.81249,-0.462963 -3.62499,-1.504628 -1.75402,-1.041666 -3.62498,-2.662035 -1.87096,-1.678239 -3.85885,-3.993052 -1.929427,-2.314812 -4.034255,-5.381939 -0.350806,0.05787 -0.993947,0.05787 -0.584675,0 -0.993947,0 -0.760077,0 -1.695558,0 -0.935479,0 -1.754024,-0.05787 v 13.483783 h -9.93947 V 1.12685 q 3.449582,-0.23148123 6.314487,-0.34722186 2.923374,-0.11574064 5.32054,-0.17361096 2.455634,-0.0578703 4.501996,-0.0578703 4.852798,0 8.243918,0.75231413 3.44957,0.6944438 5.61287,2.1990719 2.22176,1.5046283 3.21571,3.9351815 0.99395,2.372683 0.99395,5.7291616 0,3.414348 -1.05242,5.902773 -1.0524,2.430553 -3.0403,3.993051 -1.92943,1.562499 -4.56047,2.430553 1.52016,1.851851 2.86491,3.182868 1.40322,1.331017 2.57257,2.256942 1.22781,0.925926 2.28023,1.388887 1.11089,0.405093 2.10483,0.405093 0.1754,0 0.46774,0 0.29234,-0.05787 0.46774,-0.05787 l 0.0585,9.374992 q -0.40928,0.05787 -0.93549,0.115741 -0.5262,0.05787 -1.28628,0.05787 z M 96.295876,21.034239 q 2.046362,0 3.566516,-0.347222 1.520158,-0.347222 2.455638,-1.099536 0.99395,-0.810184 1.46169,-2.025461 0.5262,-1.273147 0.5262,-3.124996 0,-2.256943 -0.70161,-3.587961 -0.70161,-1.3888874 -2.39717,-2.0254609 -1.637085,-0.6365735 -4.560458,-0.6365735 -0.935481,0 -1.63709,0 -0.643142,0 -1.344751,0.057871 -0.643143,0 -1.461688,0.057871 -0.818545,0.057871 -1.987894,0.1157406 V 20.860628 q 0.877013,0.05787 1.578622,0.115741 0.70161,0 1.403219,0.05787 0.701611,0 1.40322,0 0.760077,0 1.695556,0 z"
         style="font-family:Georama;-inkscape-font-specification:'Georama Bold';stroke-width:0.600001"
         id="path677" /><path
         d="M 0,81.643455 V 41.134234 h 28.14159 v 8.564807 H 9.606569 v 10.069435 h 16.105128 v 8.275455 H 9.6630795 v 13.599524 z"
         style="font-family:Georama;-inkscape-font-specification:'Georama Bold';stroke-width:0.600001"
         id="path681" /><path
         d="m 48.145835,74.525407 q 1.525754,0 2.825466,-0.405093 1.356222,-0.405092 2.373382,-1.273146 1.017169,-0.925926 1.695275,-2.372683 0.734627,-1.504628 1.07368,-3.761571 0.395564,-2.314813 0.395564,-5.38194 0,-3.067126 -0.395564,-5.324069 -0.339053,-2.256942 -1.07368,-3.703699 -0.678106,-1.504629 -1.751786,-2.372684 -1.017159,-0.925924 -2.316871,-1.273147 -1.299712,-0.405091 -2.825466,-0.405091 -1.525745,0 -2.825457,0.405091 -1.243201,0.347223 -2.26037,1.215277 -1.01717,0.868055 -1.751787,2.372683 -0.734616,1.504628 -1.13018,3.819441 -0.395574,2.256943 -0.395574,5.324069 0,3.124997 0.395574,5.381939 0.395564,2.199073 1.13018,3.703701 0.734617,1.504628 1.751787,2.430552 1.017169,0.868056 2.316881,1.273148 1.299712,0.347222 2.768946,0.347222 z m 0.05651,7.696751 q -3.447062,0 -6.272528,-0.694443 -2.825456,-0.694444 -5.085827,-2.199072 -2.20386,-1.504628 -3.729604,-3.935182 -1.469244,-2.430553 -2.316882,-5.902772 -0.791127,-3.472219 -0.791127,-8.101844 0,-4.629625 0.734617,-8.043974 0.791127,-3.472219 2.260371,-5.902772 1.525744,-2.430554 3.729604,-3.935182 2.203861,-1.562498 5.029327,-2.256942 2.881966,-0.694444 6.385539,-0.694444 3.560082,0 6.385548,0.694444 2.881967,0.694444 5.029317,2.199072 2.20386,1.504629 3.673104,3.935181 1.525744,2.372684 2.260361,5.844902 0.791137,3.414349 0.791137,7.986104 0,4.745366 -0.791137,8.275455 -0.734617,3.472219 -2.260361,5.902772 -1.525754,2.430554 -3.729615,3.935182 -2.20386,1.504628 -5.029316,2.199072 -2.825466,0.694443 -6.272528,0.694443 z"
         style="font-family:Georama;-inkscape-font-specification:'Georama Bold';stroke-width:0.600001"
         id="path683" /><path
         d="M 71.145037,81.643455 V 41.134234 h 9.606569 v 31.944414 h 17.743896 v 8.564807 z"
         style="font-family:Georama;-inkscape-font-specification:'Georama Bold';stroke-width:0.600001"
         id="path685" /><path
         d="M 102.62064,81.643455 V 41.134234 h 9.55006 v 40.509221 z"
         style="font-family:Georama;-inkscape-font-specification:'Georama Bold';stroke-width:0.600001"
         id="path687" /><path
         d="m 135.1134,74.525407 q 1.52575,0 2.82546,-0.405093 1.35623,-0.405092 2.37339,-1.273146 1.01717,-0.925926 1.69527,-2.372683 0.73463,-1.504628 1.07368,-3.761571 0.39557,-2.314813 0.39557,-5.38194 0,-3.067126 -0.39557,-5.324069 -0.33905,-2.256942 -1.07368,-3.703699 -0.6781,-1.504629 -1.75178,-2.372684 -1.01716,-0.925924 -2.31688,-1.273147 -1.29971,-0.405091 -2.82546,-0.405091 -1.52575,0 -2.82546,0.405091 -1.2432,0.347223 -2.26037,1.215277 -1.01717,0.868055 -1.75178,2.372683 -0.73462,1.504628 -1.13018,3.819441 -0.39557,2.256943 -0.39557,5.324069 0,3.124997 0.39557,5.381939 0.39556,2.199073 1.13018,3.703701 0.73461,1.504628 1.75178,2.430552 1.01717,0.868056 2.31688,1.273148 1.29972,0.347222 2.76895,0.347222 z m 0.0565,7.696751 q -3.44706,0 -6.27252,-0.694443 -2.82546,-0.694444 -5.08584,-2.199072 -2.20386,-1.504628 -3.7296,-3.935182 -1.46924,-2.430553 -2.31688,-5.902772 -0.79113,-3.472219 -0.79113,-8.101844 0,-4.629625 0.73462,-8.043974 0.79113,-3.472219 2.26037,-5.902772 1.52575,-2.430554 3.72961,-3.935182 2.20385,-1.562498 5.02932,-2.256942 2.88197,-0.694444 6.38554,-0.694444 3.56008,0 6.38555,0.694444 2.88196,0.694444 5.02931,2.199072 2.20386,1.504629 3.67311,3.935181 1.52574,2.372684 2.26036,5.844902 0.79114,3.414349 0.79114,7.986104 0,4.745366 -0.79114,8.275455 -0.73462,3.472219 -2.26036,5.902772 -1.52576,2.430554 -3.72962,3.935182 -2.20386,1.504628 -5.02931,2.199072 -2.82547,0.694443 -6.27253,0.694443 z"
         style="font-family:Georama;-inkscape-font-specification:'Georama Bold';stroke-width:0.600001"
         id="path689" /><path
         d="M 130.85417,0.54814677 V 22.25983 h -12.65532 l 17.67709,19.95496 17.37692,-19.95496 H 141.1872 V 0.54814677 Z"
         style="fill:#eb5939;fill-opacity:1;stroke-width:0.999997"
         id="path747" /></g></g></svg>
