<?xml version="1.0" encoding="UTF-8" standalone="no"?>
<!-- Created with Inkscape (http://www.inkscape.org/) -->

<svg
   width="1200"
   height="150"
   viewBox="0 0 317.49999 39.6875"
   version="1.1"
   id="svg5"
   sodipodi:docname="portfolio.svg"
   xml:space="preserve"
   inkscape:version="1.2.2 (732a01da63, 2022-12-09)"
   xmlns:inkscape="http://www.inkscape.org/namespaces/inkscape"
   xmlns:sodipodi="http://sodipodi.sourceforge.net/DTD/sodipodi-0.dtd"
   xmlns="http://www.w3.org/2000/svg"
   xmlns:svg="http://www.w3.org/2000/svg"><sodipodi:namedview
     id="namedview7"
     pagecolor="#505050"
     bordercolor="#eeeeee"
     borderopacity="1"
     inkscape:showpageshadow="0"
     inkscape:pageopacity="0"
     inkscape:pagecheckerboard="0"
     inkscape:deskcolor="#505050"
     inkscape:document-units="mm"
     showgrid="false"
     inkscape:zoom="0.73673542"
     inkscape:cx="394.30709"
     inkscape:cy="-70.581648"
     inkscape:window-width="1920"
     inkscape:window-height="1009"
     inkscape:window-x="-8"
     inkscape:window-y="-8"
     inkscape:window-maximized="1"
     inkscape:current-layer="layer1" /><defs
     id="defs2"><rect
       x="-675.95502"
       y="255.17981"
       width="1620.6632"
       height="722.10455"
       id="rect240" /></defs><g
     inkscape:label="Calque 1"
     inkscape:groupmode="layer"
     id="layer1"><text
       xml:space="preserve"
       transform="scale(0.26458333)"
       id="text238"
       style="font-weight:bold;font-size:192px;line-height:normal;font-family:Arial;-inkscape-font-specification:'Arial Bold';text-decoration-color:#000000;white-space:pre;shape-inside:url(#rect240);display:inline;fill:#000000;stroke-width:0.755906;stroke-linecap:square;stroke-linejoin:bevel;paint-order:fill markers stroke;stop-color:#000000" /><g
       aria-label="PORTFOLIO"
       transform="scale(1.0174738,0.98282631)"
       id="text246"
       style="font-weight:bold;font-size:54.5517px;font-family:Arial;-inkscape-font-specification:'Arial Bold';stroke-width:0.2;stroke-linecap:square;stroke-linejoin:bevel;paint-order:fill markers stroke;stop-color:#000000" /><g
       aria-label="PORTFOLIO"
       transform="matrix(1.0358697,0,0,0.96537238,0,1.0583333)"
       id="text443"
       style="font-weight:bold;font-size:57.0987px;font-family:Arial;-inkscape-font-specification:'Arial Bold';fill:#eb5939;fill-opacity:1;stroke-width:0.600002;stroke-linecap:square;stop-color:#000000"><path
         d="M 3.8146973e-8,40.540077 V 0.45678877 Q 4.1111065,0.28549267 7.1944364,0.17129527 10.277766,0.05709786 12.390418,0.05709786 14.560169,-8.3923339e-7 15.645044,-8.3923339e-7 q 5.367278,0 8.907398,0.85648051923339 3.540119,0.79938182 5.538574,2.51234282 1.998454,1.7129611 2.854935,4.4536988 0.85648,2.7407377 0.85648,6.6234497 0,3.996909 -0.85648,6.851844 -0.799382,2.854935 -2.683639,4.682093 -1.827159,1.827159 -4.796291,2.740738 -2.969133,0.856481 -7.308634,0.856481 -1.256171,0 -2.112652,0 -0.799382,0 -1.427467,0 -0.628086,0 -1.256172,0 -0.628086,-0.0571 -1.484566,-0.114198 -0.856481,-0.0571 -2.1697507,-0.114197 V 40.540077 Z M 9.7067793,7.87962 v 13.874984 q 0.9135797,0.0571 1.5987637,0.114198 0.685184,0 1.256171,0.0571 0.628086,0 1.199073,0 0.628086,0 1.370369,0 2.797836,0 4.510797,-0.399691 1.77006,-0.399691 2.683639,-1.313271 0.970678,-0.913579 1.31327,-2.398145 0.342593,-1.484566 0.342593,-3.597218 0,-1.77006 -0.342593,-2.969133 Q 23.29627,9.9922719 22.43979,9.1928901 21.640408,8.3935083 20.155842,8.0509161 18.671275,7.6512252 16.387327,7.6512252 q -0.742283,0 -1.370368,0 -0.628086,0 -1.370369,0.057099 -0.685185,0 -1.655863,0.057099 -0.913579,0.057099 -2.2839477,0.1141968 z"
         style="font-family:Georama;-inkscape-font-specification:'Georama Bold';stroke-width:0.600001"
         id="path673" /><path
         d="m 55.15735,33.516937 q 1.541665,0 2.854935,-0.399691 1.370369,-0.399691 2.398145,-1.256171 1.027777,-0.91358 1.712961,-2.341047 0.742283,-1.484566 1.084876,-3.711416 0.399691,-2.283948 0.399691,-5.310179 0,-3.026231 -0.399691,-5.253081 Q 62.865674,13.018503 62.123391,11.591036 61.438207,10.106469 60.353332,9.2499888 59.325555,8.3364096 58.012285,7.9938174 56.699015,7.5941265 55.15735,7.5941265 q -1.541665,0 -2.854935,0.3996909 -1.256172,0.3425922 -2.283948,1.1990727 -1.027777,0.8564809 -1.77006,2.3410469 -0.742283,1.484566 -1.141974,3.768514 -0.399691,2.22685 -0.399691,5.253081 0,3.08333 0.399691,5.310179 0.399691,2.169751 1.141974,3.654317 0.742283,1.484566 1.77006,2.398145 1.027776,0.856481 2.341046,1.256172 1.31327,0.342592 2.797837,0.342592 z m 0.0571,7.594127 q -3.48302,0 -6.337955,-0.685184 -2.854936,-0.685185 -5.138884,-2.169751 -2.226849,-1.484566 -3.768514,-3.882712 -1.484566,-2.398145 -2.341047,-5.824067 -0.799381,-3.425922 -0.799381,-7.993818 0,-4.567896 0.742283,-7.93672 Q 38.370331,9.1928901 39.854898,6.7947446 41.396563,4.3965992 43.623412,2.9120329 45.850261,1.370368 48.705196,0.68518358 51.61723,-8.3923339e-7 55.15735,-8.3923339e-7 q 3.597218,0 6.452153,0.68518441923339 2.912034,0.68518442 5.081784,2.16975062 2.22685,1.4845663 3.711416,3.8827117 1.541665,2.3410468 2.283948,5.7669691 0.799382,3.368823 0.799382,7.879621 0,4.682093 -0.799382,8.165114 -0.742283,3.425922 -2.283948,5.824067 -1.541665,2.398146 -3.768514,3.882712 -2.22685,1.484566 -5.081785,2.169751 -2.854935,0.685184 -6.337956,0.685184 z"
         style="font-family:Georama;-inkscape-font-specification:'Georama Bold';stroke-width:0.600001"
         id="path675" /><path
         d="m 111.74211,41.111064 q -1.77006,0 -3.54012,-0.513888 -1.77006,-0.45679 -3.54012,-1.484566 -1.71296,-1.027777 -3.54012,-2.626541 -1.827156,-1.655862 -3.768512,-3.93981 -1.884257,-2.283948 -3.93981,-5.310179 -0.342593,0.0571 -0.970678,0.0571 -0.570987,0 -0.970678,0 -0.742283,0 -1.655863,0 -0.913579,0 -1.712961,-0.0571 V 40.540077 H 78.396469 V 0.57098618 Q 81.765293,0.34259137 84.563129,0.22839397 87.418064,0.11419656 89.759111,0.05709786 92.157256,-8.392334e-7 94.155711,-8.392334e-7 q 4.739192,0 8.050919,0.7422831192334 3.36882,0.68518442 5.48147,2.16975062 2.16975,1.4845663 3.14043,3.8827117 0.97068,2.3410468 0.97068,5.6527714 0,3.368823 -1.02778,5.824068 -1.02777,2.398145 -2.96913,3.93981 -1.88426,1.541665 -4.4537,2.398145 1.48457,1.827159 2.79784,3.140429 1.37037,1.31327 2.51234,2.226849 1.19907,0.91358 2.22685,1.370369 1.08488,0.399691 2.05555,0.399691 0.1713,0 0.45679,0 0.2855,-0.0571 0.45679,-0.0571 l 0.0571,9.24999 q -0.39969,0.0571 -0.91358,0.114198 -0.51389,0.0571 -1.25617,0.0571 z M 94.041513,20.212939 q 1.998455,0 3.483021,-0.342592 1.484566,-0.342592 2.398146,-1.084875 0.97068,-0.799382 1.42747,-1.998455 0.51389,-1.256171 0.51389,-3.083329 0,-2.22685 -0.68519,-3.54012 -0.68518,-1.3703688 -2.341046,-1.9984545 -1.598763,-0.6280857 -4.453698,-0.6280857 -0.91358,0 -1.598764,0 -0.628086,0 -1.31327,0.057099 -0.628086,0 -1.427468,0.057099 -0.799382,0.057099 -1.941356,0.1141974 V 20.041643 q 0.856481,0.0571 1.541665,0.114198 0.685185,0 1.370369,0.0571 0.685185,0 1.370369,0 0.742283,0 1.655862,0 z"
         style="font-family:Georama;-inkscape-font-specification:'Georama Bold';stroke-width:0.600001"
         id="path677" /><path
         d="M 151.65416,40.540077 V 0.57098618 h 28.43515 V 9.021594 h -18.72837 v 9.935174 h 16.27313 v 8.165114 h -16.21603 v 13.418195 z"
         style="font-family:Georama;-inkscape-font-specification:'Georama Bold';stroke-width:0.600001"
         id="path681" /><path
         d="m 200.30223,33.516937 q 1.54167,0 2.85494,-0.399691 1.37037,-0.399691 2.39814,-1.256171 1.02778,-0.91358 1.71296,-2.341047 0.74229,-1.484566 1.08488,-3.711416 0.39969,-2.283948 0.39969,-5.310179 0,-3.026231 -0.39969,-5.253081 -0.34259,-2.226849 -1.08488,-3.654316 -0.68518,-1.484567 -1.77006,-2.3410472 -1.02777,-0.9135792 -2.34104,-1.2561714 -1.31327,-0.3996909 -2.85494,-0.3996909 -1.54166,0 -2.85493,0.3996909 -1.25617,0.3425922 -2.28395,1.1990727 -1.02778,0.8564809 -1.77006,2.3410469 -0.74228,1.484566 -1.14197,3.768514 -0.3997,2.22685 -0.3997,5.253081 0,3.08333 0.3997,5.310179 0.39969,2.169751 1.14197,3.654317 0.74228,1.484566 1.77006,2.398145 1.02778,0.856481 2.34105,1.256172 1.31327,0.342592 2.79783,0.342592 z m 0.0571,7.594127 q -3.48302,0 -6.33796,-0.685184 -2.85493,-0.685185 -5.13888,-2.169751 -2.22685,-1.484566 -3.76851,-3.882712 -1.48457,-2.398145 -2.34105,-5.824067 -0.79938,-3.425922 -0.79938,-7.993818 0,-4.567896 0.74228,-7.93672 0.79938,-3.4259219 2.28395,-5.8240674 1.54166,-2.3981454 3.76851,-3.8827117 2.22685,-1.5416649 5.08179,-2.22684932 2.91203,-0.68518441923339 6.45215,-0.68518441923339 3.59722,0 6.45216,0.68518441923339 2.91203,0.68518442 5.08178,2.16975062 2.22685,1.4845663 3.71142,3.8827117 1.54166,2.3410468 2.28394,5.7669691 0.79939,3.368823 0.79939,7.879621 0,4.682093 -0.79939,8.165114 -0.74228,3.425922 -2.28394,5.824067 -1.54167,2.398146 -3.76852,3.882712 -2.22685,1.484566 -5.08178,2.169751 -2.85494,0.685184 -6.33796,0.685184 z"
         style="font-family:Georama;-inkscape-font-specification:'Georama Bold';stroke-width:0.600001"
         id="path683" /><path
         d="M 223.54135,40.540077 V 0.57098618 h 9.70678 V 32.089469 h 17.92899 v 8.450608 z"
         style="font-family:Georama;-inkscape-font-specification:'Georama Bold';stroke-width:0.600001"
         id="path685" /><path
         d="M 255.34529,40.540077 V 0.57098618 h 9.64968 V 40.540077 Z"
         style="font-family:Georama;-inkscape-font-specification:'Georama Bold';stroke-width:0.600001"
         id="path687" /><path
         d="m 288.177,33.516937 q 1.54167,0 2.85494,-0.399691 1.37037,-0.399691 2.39814,-1.256171 1.02778,-0.91358 1.71296,-2.341047 0.74229,-1.484566 1.08488,-3.711416 0.39969,-2.283948 0.39969,-5.310179 0,-3.026231 -0.39969,-5.253081 -0.34259,-2.226849 -1.08488,-3.654316 -0.68518,-1.484567 -1.77006,-2.3410472 -1.02777,-0.9135792 -2.34104,-1.2561714 -1.31327,-0.3996909 -2.85494,-0.3996909 -1.54166,0 -2.85493,0.3996909 -1.25617,0.3425922 -2.28395,1.1990727 -1.02778,0.8564809 -1.77006,2.3410469 -0.74228,1.484566 -1.14197,3.768514 -0.39969,2.22685 -0.39969,5.253081 0,3.08333 0.39969,5.310179 0.39969,2.169751 1.14197,3.654317 0.74228,1.484566 1.77006,2.398145 1.02778,0.856481 2.34105,1.256172 1.31327,0.342592 2.79783,0.342592 z m 0.0571,7.594127 q -3.48302,0 -6.33795,-0.685184 -2.85494,-0.685185 -5.13889,-2.169751 -2.22685,-1.484566 -3.76851,-3.882712 -1.48457,-2.398145 -2.34105,-5.824067 -0.79938,-3.425922 -0.79938,-7.993818 0,-4.567896 0.74228,-7.93672 0.79938,-3.4259219 2.28395,-5.8240674 1.54167,-2.3981454 3.76852,-3.8827117 2.22684,-1.5416649 5.08178,-2.22684932 Q 284.63688,-8.3923339e-7 288.177,-8.3923339e-7 q 3.59722,0 6.45216,0.68518441923339 2.91203,0.68518442 5.08178,2.16975062 2.22685,1.4845663 3.71142,3.8827117 1.54166,2.3410468 2.28394,5.7669691 0.79939,3.368823 0.79939,7.879621 0,4.682093 -0.79939,8.165114 -0.74228,3.425922 -2.28394,5.824067 -1.54167,2.398146 -3.76852,3.882712 -2.22685,1.484566 -5.08178,2.169751 -2.85494,0.685184 -6.33796,0.685184 z"
         style="font-family:Georama;-inkscape-font-specification:'Georama Bold';stroke-width:0.600001"
         id="path689" /><path
         d="M 127.79077,-9.3962398e-7 V 21.422189 h -12.35905 l 17.26326,19.68889 16.97011,-19.68889 H 137.8819 V -9.3962398e-7 Z"
         style="fill:#eb5939;fill-opacity:1;stroke-width:0.999997"
         id="path747" /></g></g></svg>
