<?xml version="1.0" encoding="UTF-8" standalone="no"?>
<!-- Created with Inkscape (http://www.inkscape.org/) -->

<svg
   width="1200"
   height="175"
   viewBox="0 0 317.49999 46.302083"
   version="1.1"
   id="svg5"
   sodipodi:docname="portfolio.svg"
   xml:space="preserve"
   inkscape:version="1.3.2 (091e20e, 2023-11-25, custom)"
   xmlns:inkscape="http://www.inkscape.org/namespaces/inkscape"
   xmlns:sodipodi="http://sodipodi.sourceforge.net/DTD/sodipodi-0.dtd"
   xmlns="http://www.w3.org/2000/svg"
   xmlns:svg="http://www.w3.org/2000/svg"><sodipodi:namedview
     id="namedview7"
     pagecolor="#505050"
     bordercolor="#eeeeee"
     borderopacity="1"
     inkscape:showpageshadow="0"
     inkscape:pageopacity="0"
     inkscape:pagecheckerboard="0"
     inkscape:deskcolor="#505050"
     inkscape:document-units="mm"
     showgrid="false"
     inkscape:zoom="0.5209506"
     inkscape:cx="381.03421"
     inkscape:cy="104.61645"
     inkscape:window-width="1920"
     inkscape:window-height="1017"
     inkscape:window-x="-8"
     inkscape:window-y="-8"
     inkscape:window-maximized="1"
     inkscape:current-layer="layer1" /><defs
     id="defs2"><rect
       x="-675.95502"
       y="255.17981"
       width="1620.6632"
       height="722.10455"
       id="rect240" /></defs><g
     inkscape:label="Calque 1"
     inkscape:groupmode="layer"
     id="layer1"><g
       id="g77"
       transform="matrix(0.94579101,0,0,0.94579101,8.7440334,-79.351322)"
       style="stroke-width:0.4196223;stroke-dasharray:none"><g
         id="g25"
         style="stroke-width:0.2797482;stroke-dasharray:none"><g
           aria-label="PORTFOLIO"
           transform="matrix(1.1998493,0,0,1.1262669,-26.969117,84.666671)"
           id="text443-9"
           style="font-weight:bold;font-size:57.0987px;font-family:Arial;-inkscape-font-specification:'Arial Bold';fill:#000000;fill-opacity:1;stroke-width:0.24064857;stroke-linecap:square;stop-color:#000000;stroke-dasharray:none"><path
             d="M 127.79077,-9.3962398e-7 V 21.422189 h -12.35905 l 17.26326,19.68889 16.97011,-19.68889 H 137.8819 V -9.3962398e-7 Z"
             style="fill:#000000;fill-opacity:1;stroke-width:0.24064857;stroke-dasharray:none"
             id="path747-1" /></g><path
           style="fill:#ffffff;fill-opacity:1;stroke:#000000;stroke-width:0.2797482;stroke-dasharray:none;stroke-opacity:1"
           d="m 122.01953,86.150102 4.44399,-1.460172 12.01467,-0.158714 -4.20592,16.157114 -9.26892,-7.1104"
           id="path7"
           sodipodi:nodetypes="ccccc" /><path
           style="fill:#808080;stroke:#000000;stroke-width:0.2797482;stroke-dasharray:none;stroke-opacity:1"
           d="m 134.04504,86.370617 4.48912,-1.705864 V 108.8162 l -9.06802,3.59127 1.88543,-21.996667"
           id="path3"
           sodipodi:nodetypes="ccccc" /><path
           style="fill:#666666;stroke:#000000;stroke-width:0.2797482;stroke-dasharray:none;stroke-opacity:1"
           d="m 133.78522,110.62138 c 0.35913,-0.26935 5.02781,-2.065 5.02781,-2.065 h 14.09583 l -7.90085,3.23217 -12.47974,1.25695"
           id="path4"
           sodipodi:nodetypes="ccccc" /><path
           style="fill:#333333;stroke:#000000;stroke-width:0.2797482;stroke-dasharray:none;stroke-opacity:1"
           d="m 128.11415,132.43118 4.57097,-1.52366 20.18846,-22.34696 -6.34857,2.28548 -17.01417,9.64983"
           id="path5" /><path
           style="fill:#ffffff;fill-opacity:1;stroke:#000000;stroke-width:0.2797482;stroke-dasharray:none;stroke-opacity:1"
           d="m 106.90993,110.21118 4.8884,-1.39668 16.06188,-0.12697 -5.71371,5.14234"
           id="path6" /><g
           aria-label="PORTFOLIO"
           transform="matrix(1.1998493,0,0,1.1262669,-31.20245,86.254169)"
           id="g2"
           style="font-weight:bold;font-size:57.0987px;font-family:Arial;-inkscape-font-specification:'Arial Bold';fill:#ffffff;fill-opacity:1;stroke:#000000;stroke-width:0.24064857;stroke-linecap:square;stroke-dasharray:none;stroke-opacity:1;stop-color:#000000"><path
             d="M 127.79077,-9.3962398e-7 V 21.422189 h -12.35905 l 17.26326,19.68889 16.97011,-19.68889 H 137.8819 V -9.3962398e-7 Z"
             style="fill:#ffffff;fill-opacity:1;stroke:#000000;stroke-width:0.24064857;stroke-dasharray:none;stroke-opacity:1"
             id="path2" /></g></g><g
         id="g119"
         style="stroke-width:0.4196223;stroke-dasharray:none;opacity:0.3"><path
           style="fill:none;fill-opacity:1;stroke:#222222;stroke-width:0.4196223;stroke-dasharray:none;stroke-opacity:1"
           d="m 137.69022,86.651524 -2.7521,4.027467"
           id="path84" /><path
           style="fill:none;fill-opacity:1;stroke:#222222;stroke-width:0.4196223;stroke-dasharray:none;stroke-opacity:1"
           d="M 138.29435,88.128262 134.871,93.095471"
           id="path85" /><path
           style="fill:none;fill-opacity:1;stroke:#222222;stroke-width:0.4196223;stroke-dasharray:none;stroke-opacity:1"
           d="M 138.42859,90.276244 134.871,95.579076"
           id="path86" /><path
           style="fill:none;fill-opacity:1;stroke:#222222;stroke-width:0.4196223;stroke-dasharray:none;stroke-opacity:1"
           d="m 138.42859,93.22972 -3.42334,4.228841"
           id="path87" /><path
           style="fill:none;fill-opacity:1;stroke:#222222;stroke-width:0.4196223;stroke-dasharray:none;stroke-opacity:1"
           d="m 137.8916,104.10388 -2.95348,3.96034"
           id="path88" /><path
           style="fill:none;fill-opacity:1;stroke:#222222;stroke-width:0.4196223;stroke-dasharray:none;stroke-opacity:1"
           d="m 138.1601,105.71487 -2.48361,3.2891"
           id="path89" /><path
           style="fill:none;fill-opacity:1;stroke:#222222;stroke-width:0.4196223;stroke-dasharray:none;stroke-opacity:1"
           d="m 138.02585,102.2244 -3.0206,3.89322"
           id="path90" /><path
           style="fill:none;fill-opacity:1;stroke:#222222;stroke-width:0.4196223;stroke-dasharray:none;stroke-opacity:1"
           d="m 130.30654,130.68517 2.68498,-0.67125"
           id="path95" /><path
           style="fill:none;fill-opacity:1;stroke:#222222;stroke-width:0.4196223;stroke-dasharray:none;stroke-opacity:1"
           d="m 131.24628,129.61117 2.41648,-0.53699"
           id="path96" /><path
           style="fill:none;fill-opacity:1;stroke:#222222;stroke-width:0.4196223;stroke-dasharray:none;stroke-opacity:1"
           d="m 132.25314,128.47006 2.81923,-0.60412"
           id="path97" /><path
           style="fill:none;fill-opacity:1;stroke:#222222;stroke-width:0.4196223;stroke-dasharray:none;stroke-opacity:1"
           d="m 133.52851,127.26182 2.34935,-0.46987"
           id="path98" /><path
           style="fill:none;fill-opacity:1;stroke:#222222;stroke-width:0.4196223;stroke-dasharray:none;stroke-opacity:1"
           d="m 134.46825,126.18783 1.94661,-0.20137"
           id="path99" /><path
           style="fill:none;fill-opacity:1;stroke:#222222;stroke-width:0.4196223;stroke-dasharray:none;stroke-opacity:1"
           d="m 141.85194,118.13289 2.55073,-0.67124"
           id="path100" /><path
           style="fill:none;fill-opacity:1;stroke:#222222;stroke-width:0.4196223;stroke-dasharray:none;stroke-opacity:1"
           d="m 142.72456,116.85753 2.61785,-0.46987"
           id="path101" /><path
           style="fill:none;fill-opacity:1;stroke:#222222;stroke-width:0.4196223;stroke-dasharray:none;stroke-opacity:1"
           d="m 143.86567,115.98491 2.28224,-0.40275"
           id="path102" /><path
           style="fill:none;fill-opacity:1;stroke:#222222;stroke-width:0.4196223;stroke-dasharray:none;stroke-opacity:1"
           d="m 145.07392,114.77667 1.81236,-0.20137"
           id="path103" /><path
           style="fill:none;fill-opacity:1;stroke:#222222;stroke-width:0.4196223;stroke-dasharray:none;stroke-opacity:1"
           d="m 145.47666,114.0383 2.01374,-0.13425"
           id="path104" /><path
           style="fill:none;fill-opacity:1;stroke:#222222;stroke-width:0.4196223;stroke-dasharray:none;stroke-opacity:1"
           d="m 135.54224,125.38233 1.14112,-0.0671"
           id="path105" /><path
           style="fill:none;fill-opacity:1;stroke:#222222;stroke-width:0.4196223;stroke-dasharray:none;stroke-opacity:1"
           d="m 137.15323,108.46697 1.00687,-1.47674"
           id="path106" /><path
           style="fill:none;fill-opacity:1;stroke:#222222;stroke-width:0.4196223;stroke-dasharray:none;stroke-opacity:1"
           d="m 135.54224,104.30526 1.81236,-2.14799"
           id="path107" /><path
           style="fill:none;fill-opacity:1;stroke:#222222;stroke-width:0.4196223;stroke-dasharray:none;stroke-opacity:1"
           d="m 135.94499,97.525685 2.01373,-2.147982"
           id="path108" /><path
           style="fill:none;fill-opacity:1;stroke:#222222;stroke-width:0.4196223;stroke-dasharray:none;stroke-opacity:1"
           d="m 135.54224,88.598133 1.34249,-1.879485"
           id="path109" /><path
           style="fill:none;fill-opacity:1;stroke:#222222;stroke-width:0.4196223;stroke-dasharray:none;stroke-opacity:1"
           d="m 131.95108,87.490579 1.51031,1.073992"
           id="path112" /><path
           style="fill:none;fill-opacity:1;stroke:#222222;stroke-width:0.4196223;stroke-dasharray:none;stroke-opacity:1"
           d="m 131.21272,87.691953 2.34935,1.711673"
           id="path113" /><path
           style="fill:none;fill-opacity:1;stroke:#222222;stroke-width:0.4196223;stroke-dasharray:none;stroke-opacity:1"
           d="m 130.03836,87.910142 3.44116,2.39694"
           id="path114" /><path
           style="fill:none;fill-opacity:1;stroke:#222222;stroke-width:0.4196223;stroke-dasharray:none;stroke-opacity:1"
           d="m 130.41808,88.90689 2.13588,1.471389"
           id="path115" /><path
           style="fill:none;fill-opacity:1;stroke:#222222;stroke-width:0.4196223;stroke-dasharray:none;stroke-opacity:1"
           d="m 138.83444,112.14188 2.03923,1.43298"
           id="path116" /><path
           style="fill:none;fill-opacity:1;stroke:#222222;stroke-width:0.4196223;stroke-dasharray:none;stroke-opacity:1"
           d="m 138.28872,111.20774 2.26036,1.53939"
           id="path117" /><path
           style="fill:none;fill-opacity:1;stroke:#222222;stroke-width:0.4196223;stroke-dasharray:none;stroke-opacity:1"
           d="m 137.04162,111.53901 3.07878,2.14345"
           id="path118" /><path
           style="fill:none;fill-opacity:1;stroke:#222222;stroke-width:0.4196223;stroke-dasharray:none;stroke-opacity:1"
           d="m 136.68866,112.2145 2.06551,1.40298"
           id="path119" /></g></g><text
       xml:space="preserve"
       transform="scale(0.26458333)"
       id="text238"
       style="font-weight:bold;font-size:192px;line-height:normal;font-family:Arial;-inkscape-font-specification:'Arial Bold';text-decoration-color:#000000;white-space:pre;shape-inside:url(#rect240);display:inline;fill:#000000;stroke-width:0.755906;stroke-linecap:square;stroke-linejoin:bevel;paint-order:fill markers stroke;stop-color:#000000" /><g
       aria-label="PORTFOLIO"
       transform="scale(1.0174738,0.98282631)"
       id="text246"
       style="font-weight:bold;font-size:54.5517px;font-family:Arial;-inkscape-font-specification:'Arial Bold';stroke-width:0.2;stroke-linecap:square;stroke-linejoin:bevel;paint-order:fill markers stroke;stop-color:#000000" /><g
       aria-label="PORTFOLIO"
       transform="matrix(1.1998493,0,0,1.1262669,-26.969117,-58.208337)"
       id="text443"
       style="font-weight:bold;font-size:57.0987px;font-family:Arial;-inkscape-font-specification:'Arial Bold';fill:#000000;fill-opacity:1;stroke:#000000;stroke-width:0.227603;stroke-linecap:square;stroke-dasharray:none;stroke-opacity:1;stop-color:#000000"><path
         d="M 127.79077,-9.3962398e-7 V 21.422189 h -12.35905 l 17.26326,19.68889 16.97011,-19.68889 H 137.8819 V -9.3962398e-7 Z"
         style="fill:#000000;fill-opacity:1;stroke:#000000;stroke-width:0.227603;stroke-dasharray:none;stroke-opacity:1"
         id="path747" /></g><path
       d="m 15.702738,0.69302639 c 6.051407,0 10.512664,1.25991871 13.38377,3.77975601 2.915278,2.4778401 4.372917,5.9426166 4.372917,10.3943286 0,2.01587 -0.309196,3.947746 -0.927588,5.795626 -0.618394,1.805884 -1.656408,3.42278 -3.114046,4.850688 -1.413469,1.427906 -3.29073,2.561835 -5.631787,3.40178 -2.296885,0.839946 -5.145904,1.259919 -8.547061,1.259919 h -3.975379 v 15.497 H -6.3632992e-6 V 0.69302639 Z M 15.3052,9.4494612 H 11.263564 V 21.418689 h 2.981534 c 1.54598,0 2.893192,-0.209986 4.041634,-0.62996 1.192613,-0.419972 2.120202,-1.091929 2.782765,-2.01587 0.662563,-0.923941 0.993844,-2.120861 0.993844,-3.590769 0,-1.84788 -0.552136,-3.254789 -1.656407,-4.220726 C 19.302661,9.9534286 17.602085,9.4494612 15.3052,9.4494612 Z"
       style="font-weight:800;font-size:54.3583px;font-family:'Noto Sans';-inkscape-font-specification:'Noto Sans Ultra-Bold';stroke-width:5.3838"
       id="path1" /><path
       d="m 79.14245,23.119579 c 0,3.485775 -0.441709,6.656571 -1.325126,9.512385 -0.883417,2.813819 -2.252714,5.249663 -4.107891,7.307529 -1.855176,2.057868 -4.218317,3.632767 -7.089424,4.724695 -2.871106,1.09193 -6.272264,1.637894 -10.203472,1.637894 -3.887035,0 -7.266106,-0.545964 -10.137211,-1.637894 -2.871108,-1.133926 -5.23425,-2.708824 -7.089425,-4.724695 -1.855177,-2.057866 -3.246559,-4.514708 -4.174146,-7.370524 -0.883418,-2.855816 -1.325127,-6.026611 -1.325127,-9.512385 0,-4.6617 0.795076,-8.714439 2.385228,-12.158216 1.634322,-3.4437779 4.129976,-6.1106059 7.48696,-8.0004839 C 46.963973,0.96600878 51.270632,7.110598e-5 56.482795,7.110598e-5 c 5.256333,0 9.540907,0.96593767402 12.853722,2.89781299402 3.356987,1.889878 5.830554,4.5777046 7.420705,8.0634799 1.590152,3.443778 2.385228,7.496516 2.385228,12.158215 z m -33.591944,0 c 0,2.939812 0.375451,5.480646 1.126357,7.622508 0.750905,2.099863 1.921432,3.71676 3.511583,4.850687 1.634321,1.133926 3.710353,1.70089 6.228091,1.70089 2.606081,0 4.704199,-0.566964 6.29435,-1.70089 1.590152,-1.133927 2.738594,-2.750824 3.445327,-4.850687 0.750905,-2.141862 1.126356,-4.682696 1.126356,-7.622508 0,-4.451713 -0.839244,-7.937489 -2.517738,-10.457325 -1.634322,-2.519838 -4.395001,-3.7797561 -8.282037,-3.7797561 -2.561912,0 -4.660028,0.587962 -6.294349,1.7638861 -1.590151,1.133926 -2.760678,2.771822 -3.511583,4.913683 -0.750906,2.099864 -1.126357,4.619702 -1.126357,7.559512 z"
       style="font-weight:800;font-size:54.3583px;font-family:'Noto Sans';-inkscape-font-specification:'Noto Sans Ultra-Bold';stroke-width:5.3838"
       id="path1-6" /><path
       d="m 94.96028,0.69302639 c 4.284575,0 7.81825,0.50396741 10.60101,1.51190241 2.82694,0.9659377 4.94713,2.4568414 6.36061,4.4727113 1.41346,1.9738725 2.12019,4.4517129 2.12019,7.4335209 0,1.931874 -0.37545,3.653764 -1.12635,5.165667 -0.75091,1.511901 -1.76683,2.834817 -3.04779,3.968743 -1.23679,1.133926 -2.67233,2.078866 -4.30666,2.834817 l 13.84755,19.591736 H 106.7539 L 96.086638,28.789213 H 91.647465 V 45.672124 H 80.383894 V 0.69302639 Z M 94.496485,9.1344815 h -2.84902 V 20.410754 h 2.84902 c 2.694423,0 4.704199,-0.46197 6.029325,-1.38591 1.36929,-0.965937 2.05394,-2.477841 2.05394,-4.535708 0,-1.217921 -0.2871,-2.204858 -0.86132,-2.960809 C 101.1442,10.730379 100.26078,10.142416 99.068171,9.7644408 97.875558,9.3444679 96.351662,9.1344815 94.496485,9.1344815 Z"
       style="font-weight:800;font-size:54.3583px;font-family:'Noto Sans';-inkscape-font-specification:'Noto Sans Ultra-Bold';stroke-width:5.3838"
       id="path1-2" /><path
       d="M 165.33995,45.672124 H 154.2089 V 0.69302639 h 27.49636 V 9.3864653 H 165.33995 V 19.591807 h 15.1727 v 8.693439 h -15.1727 z"
       style="font-weight:800;font-size:54.3583px;font-family:'Noto Sans';-inkscape-font-specification:'Noto Sans Ultra-Bold';stroke-width:5.3838"
       id="path1-3" /><path
       d="m 227.04048,23.119579 c 0,3.485775 -0.44172,6.656571 -1.32514,9.512385 -0.88342,2.813819 -2.2527,5.249663 -4.10788,7.307529 -1.85518,2.057868 -4.21831,3.632767 -7.08942,4.724695 -2.87112,1.09193 -6.27227,1.637894 -10.20347,1.637894 -3.88705,0 -7.26612,-0.545964 -10.13722,-1.637894 -2.87112,-1.133926 -5.23426,-2.708824 -7.08943,-4.724695 -1.85516,-2.057866 -3.24656,-4.514708 -4.17414,-7.370524 -0.88342,-2.855816 -1.32514,-6.026611 -1.32514,-9.512385 0,-4.6617 0.79508,-8.714439 2.38524,-12.158216 1.63433,-3.4437779 4.12997,-6.1106059 7.48695,-8.0004839 3.40116,-1.93187532 7.70783,-2.89781299402 12.91999,-2.89781299402 5.25633,0 9.54091,0.96593767402 12.85372,2.89781299402 3.35698,1.889878 5.83056,4.5777046 7.42071,8.0634799 1.59015,3.443778 2.38523,7.496516 2.38523,12.158215 z m -33.59196,0 c 0,2.939812 0.37546,5.480646 1.12636,7.622508 0.7509,2.099863 1.92144,3.71676 3.51159,4.850687 1.63433,1.133926 3.71037,1.70089 6.2281,1.70089 2.60607,0 4.70419,-0.566964 6.29434,-1.70089 1.59015,-1.133927 2.7386,-2.750824 3.44533,-4.850687 0.75091,-2.141862 1.12636,-4.682696 1.12636,-7.622508 0,-4.451713 -0.83926,-7.937489 -2.51774,-10.457325 -1.63432,-2.519838 -4.395,-3.7797561 -8.28204,-3.7797561 -2.56191,0 -4.66002,0.587962 -6.29435,1.7638861 -1.59015,1.133926 -2.76069,2.771822 -3.51159,4.913683 -0.7509,2.099864 -1.12636,4.619702 -1.12636,7.559512 z"
       style="font-weight:800;font-size:54.3583px;font-family:'Noto Sans';-inkscape-font-specification:'Noto Sans Ultra-Bold';stroke-width:5.3838"
       id="path1-9" /><path
       d="M 228.2819,45.672124 V 0.69302634 h 11.26358 V 36.915689 H 258.296 v 8.756435 z"
       style="font-weight:800;font-size:54.3583px;font-family:'Noto Sans';-inkscape-font-specification:'Noto Sans Ultra-Bold';stroke-width:5.3838"
       id="path1-36" /><path
       d="M 259.50448,45.672124 V 0.69302639 h 11.26357 V 45.672124 Z"
       style="font-weight:800;font-size:54.3583px;font-family:'Noto Sans';-inkscape-font-specification:'Noto Sans Ultra-Bold';stroke-width:5.3838"
       id="path1-68" /><path
       d="m 317.49999,23.119579 c 0,3.485775 -0.4417,6.656571 -1.32513,9.512385 -0.88341,2.813819 -2.25271,5.249663 -4.10789,7.307529 -1.85516,2.057868 -4.2183,3.632767 -7.08942,4.724695 -2.87109,1.09193 -6.27225,1.637894 -10.20346,1.637894 -3.88704,0 -7.26611,-0.545964 -10.13723,-1.637894 -2.87108,-1.133926 -5.23423,-2.708824 -7.08941,-4.724695 -1.85518,-2.057866 -3.24656,-4.514708 -4.17415,-7.370524 -0.88343,-2.855816 -1.32513,-6.026611 -1.32513,-9.512385 0,-4.6617 0.79508,-8.714439 2.38523,-12.158216 1.63432,-3.4437779 4.12999,-6.1106059 7.48696,-8.0004839 3.40117,-1.93187532 7.70782,-2.89781299402 12.91998,-2.89781299402 5.25632,0 9.5409,0.96593767402 12.85372,2.89781299402 3.357,1.889878 5.83056,4.5777046 7.42071,8.0634799 1.59015,3.443778 2.38522,7.496516 2.38522,12.158215 z m -33.59193,0 c 0,2.939812 0.37545,5.480646 1.12635,7.622508 0.7509,2.099863 1.92143,3.71676 3.51158,4.850687 1.63432,1.133926 3.71036,1.70089 6.2281,1.70089 2.60608,0 4.70419,-0.566964 6.29434,-1.70089 1.59015,-1.133927 2.7386,-2.750824 3.44532,-4.850687 0.75091,-2.141862 1.12637,-4.682696 1.12637,-7.622508 0,-4.451713 -0.83926,-7.937489 -2.51775,-10.457325 -1.63432,-2.519838 -4.39499,-3.7797561 -8.28203,-3.7797561 -2.56191,0 -4.66003,0.587962 -6.29435,1.7638861 -1.59015,1.133926 -2.76068,2.771822 -3.51158,4.913683 -0.7509,2.099864 -1.12635,4.619702 -1.12635,7.559512 z"
       style="font-weight:800;font-size:54.3583px;font-family:'Noto Sans';-inkscape-font-specification:'Noto Sans Ultra-Bold';stroke-width:5.3838"
       id="path1-7" /></g></svg>
